<svg width="44" height="44" viewBox="0 0 44 44" fill="none" xmlns="http://www.w3.org/2000/svg">
<rect width="44" height="44" fill="white"/>
<path d="M24.9307 43.0029V31.043C24.9307 22.7047 31.6897 15.9454 40.0279 15.9454V27.9057C40.0279 36.2436 33.2686 43.0029 24.9307 43.0029Z" fill="#2A1567"/>
<path d="M21.0926 35.0459V17.7321C21.0926 8.44526 13.5643 0.917023 4.27783 0.917023V18.2308C4.27783 27.5176 11.8061 35.0459 21.0926 35.0459Z" fill="#2A1567"/>
<path d="M36.3487 8.11225C36.3487 11.2652 33.7927 13.8213 30.6393 13.8213C27.4864 13.8213 24.9307 11.2652 24.9307 8.11225C24.9307 4.95929 27.4864 2.40321 30.6393 2.40321C33.7927 2.40321 36.3487 4.95929 36.3487 8.11225Z" fill="#00A6C7"/>
</svg>
