<svg width="42" height="34" viewBox="0 0 42 34" fill="none" xmlns="http://www.w3.org/2000/svg">
<rect width="41.6804" height="34" rx="7.58929" fill="#FFEA2D"/>
<path d="M13.9767 6.93457C13.9278 6.97006 13.7717 7.08558 13.6305 7.18888C12.7193 7.84934 11.8057 8.75184 11.0983 9.68857C10.3398 10.6949 9.76895 11.779 9.32967 13.0461C9.16283 13.5215 9.15189 13.6919 9.27732 13.8202C9.38735 13.9281 15.5054 17.3101 15.6181 17.3217C15.7595 17.3386 15.9266 17.2422 15.9825 17.1115C16.0101 17.0519 16.0501 14.9502 16.0877 11.6393C16.1354 7.4436 16.1367 6.24679 16.0971 6.17846C16.0211 6.04725 15.9152 5.98433 15.766 5.97919C15.6369 5.97708 15.6079 5.99015 14.8502 6.4235C14.4185 6.66883 14.0255 6.89909 13.9767 6.93457Z" fill="black"/>
<path d="M17.8019 5.36007C17.7649 5.42878 17.7648 6.29298 17.8027 9.00208C17.8572 12.7809 17.8508 12.6752 18.0586 12.8069C18.2402 12.9247 17.9637 13.0658 23.0555 10.2141C28.2212 7.31966 27.867 7.5348 27.8682 7.29711C27.8702 7.07352 27.6996 6.92399 26.9812 6.51049C24.3777 5.0071 21.4521 4.50615 18.5097 5.06135C18.0191 5.15461 17.8808 5.21245 17.8019 5.36007Z" fill="black"/>
<path d="M8.74967 15.8872C8.66331 16.123 8.651 17.3008 8.72736 18.07C8.85589 19.3962 9.15792 20.5677 9.70184 21.8476C9.78441 22.0407 10.0177 22.4751 10.3312 23.0163C10.8774 23.9595 11.0742 24.2362 11.6756 24.9213C12.0075 25.2988 12.0804 25.3552 12.2441 25.3665C12.3352 25.3724 12.5188 25.2665 15.0683 23.7559C16.564 22.8677 17.9567 22.0352 18.1601 21.907C18.5232 21.6757 18.5326 21.6666 18.5771 21.5352C18.6359 21.359 18.5897 21.2289 18.4283 21.1141C18.1081 20.8831 9.27184 15.6845 9.15829 15.6588C8.98739 15.6225 8.81048 15.7209 8.74967 15.8872Z" fill="black"/>
<path d="M25.3354 10.8893C23.2176 12.1545 23.1233 12.2126 23.0849 12.304C23.0612 12.3578 23.0448 12.4621 23.0507 12.5353C23.0584 12.6621 23.0679 12.6785 23.1648 12.7575C23.3591 12.9226 32.35 18.218 32.4793 18.2455C32.616 18.2797 32.7762 18.2092 32.869 18.0791C32.9789 17.9282 32.9928 16.5891 32.8953 15.6825C32.7933 14.7239 32.5316 13.6094 32.2115 12.7474C31.924 11.9796 31.7123 11.551 31.2078 10.7115C30.7492 9.95121 30.5833 9.71508 30.1202 9.16163C29.7353 8.7053 29.6285 8.60283 29.4772 8.56245L29.3388 8.52554L28.4434 9.04927C27.9476 9.33527 26.5489 10.1638 25.3354 10.8893Z" fill="black"/>
<path d="M25.7135 16.7094C25.6749 16.7499 25.6363 16.8159 25.6287 16.8531C25.6199 16.8947 25.5874 19.3311 25.5527 22.2685C25.5061 26.2264 25.5051 27.6382 25.5397 27.7168C25.602 27.8559 25.7708 27.9518 25.9226 27.9299C26.1015 27.9106 27.6841 26.9832 28.1272 26.6439C30.137 25.091 31.5042 23.2048 32.3157 20.8515C32.4628 20.4239 32.4825 20.2812 32.4081 20.1527C32.3732 20.0926 32.0347 19.8867 31.172 19.4069C27.3423 17.2688 26.1208 16.5985 26.0324 16.5911C25.9056 16.5804 25.8002 16.6193 25.7135 16.7094Z" fill="black"/>
<path d="M13.846 26.386C13.8238 26.417 13.792 26.501 13.7822 26.5723C13.7424 26.7812 13.8233 26.8767 14.2525 27.1507C16.9303 28.8518 20.0699 29.4445 23.1961 28.8344C23.6475 28.7492 23.8073 28.6716 23.8564 28.523C23.8742 28.4653 23.8674 26.8321 23.8392 24.8905C23.7798 21.078 23.7911 21.2174 23.5624 21.094C23.4995 21.061 23.415 21.0477 23.3491 21.0602C23.2821 21.0769 21.98 21.7948 19.6023 23.1292C17.5988 24.2515 15.4939 25.4322 14.9248 25.7495C14.3364 26.0778 13.871 26.3534 13.846 26.386Z" fill="black"/>
</svg>