<svg width="35" height="35" viewBox="0 0 40 40" fill="none" xmlns="http://www.w3.org/2000/svg">
<path d="M39.1229 14.3065C35.3783 2.01835 24.031 0 20.5134 0C14.8965 0 11.6625 1.48408 9.61998 2.84943C4.40024 6.23314 0.428695 12.1101 0.0315411 19.3524C-0.535822 30.2159 6.61296 39.061 16.4851 39.9514C22.3289 40.4857 32.6549 36.6865 32.7684 24.8138C32.9386 17.4528 29.5344 15.197 27.8891 14.0097C26.187 12.7631 23.8608 11.9914 21.024 12.1695C18.1872 12.3475 14.4993 14.544 14.2724 18.0464C13.9887 22.8548 17.3929 23.9234 18.2439 24.0421C19.0382 24.1015 18.7545 24.0421 18.7545 24.0421C18.7545 24.0421 17.6198 22.6767 17.9602 20.7771C18.3006 18.5807 19.7191 17.9277 21.5914 18.0464C23.5204 18.2245 24.8253 20.2429 24.7686 22.9142C24.7119 25.5262 23.18 28.6724 18.1872 28.4943C13.1944 28.3163 10.5845 24.1015 10.5845 20.0648C10.5845 16.0281 14.1589 8.66703 22.2155 8.66703C30.272 8.66703 34.5272 15.85 35.6052 19.7086C37.2506 25.4668 34.9244 33.4215 34.9244 33.4215C34.9244 33.4215 42.5271 25.2294 39.1229 14.3065Z" fill="#00A74E"/>
</svg>
