<svg width="33" height="33" viewBox="0 0 33 33" fill="none" xmlns="http://www.w3.org/2000/svg">
<rect width="33" height="33" rx="8.41835" fill="#333333"/>
<path fill-rule="evenodd" clip-rule="evenodd" d="M20.7166 10.812C20.4008 10.812 20.109 10.9805 19.9511 11.254L17.5162 15.471C17.3542 15.7516 17.5567 16.1024 17.8807 16.1024L28.0259 16.1024C28.7063 16.1024 29.1316 15.3658 28.7914 14.7765L26.7575 11.254C26.5996 10.9805 26.3078 10.812 25.992 10.812L20.7166 10.812ZM13.6952 10.0196C13.5373 10.293 13.5373 10.63 13.6952 10.9035L16.1299 15.1208C16.2919 15.4014 16.697 15.4014 16.859 15.1208L21.9316 6.3348C22.2718 5.74552 21.8465 5.00891 21.1661 5.00891L17.0984 5.00891C16.7826 5.00891 16.4908 5.17739 16.3329 5.45088L13.6952 10.0196ZM9.52011 15.7078C9.67801 15.9813 9.96982 16.1498 10.2856 16.1498L15.1552 16.1498C15.4792 16.1498 15.6818 15.799 15.5197 15.5184L10.4471 6.7324C10.1069 6.14311 9.25635 6.14311 8.91613 6.7324L6.88243 10.2549C6.72454 10.5284 6.72453 10.8653 6.88242 11.1388L9.52011 15.7078ZM12.3193 22.1409C12.6351 22.1409 12.9269 21.9724 13.0848 21.6989L15.5197 17.4819C15.6817 17.2013 15.4792 16.8505 15.1552 16.8505L5.01005 16.8502C4.32959 16.8502 3.9043 17.5869 4.24453 18.1761L6.27846 21.6989C6.43636 21.9724 6.72816 22.1409 7.04396 22.1409L12.3193 22.1409ZM19.2936 22.9804C19.4515 22.7069 19.4515 22.37 19.2936 22.0965L16.859 17.8792C16.6969 17.5986 16.2919 17.5986 16.1299 17.8792L11.0573 26.6652C10.7171 27.2544 11.1424 27.9911 11.8228 27.9911L15.8904 27.9911C16.2062 27.9911 16.4981 27.8226 16.656 27.5491L19.2936 22.9804ZM23.5158 17.2922C23.3579 17.0187 23.0661 16.8502 22.7503 16.8502L17.8807 16.8502C17.5567 16.8502 17.3542 17.201 17.5162 17.4816L22.5888 26.2676C22.929 26.8569 23.7796 26.8569 24.1198 26.2676L26.1535 22.745C26.3114 22.4716 26.3114 22.1346 26.1535 21.8611L23.5158 17.2922Z" fill="url(#paint0_linear_2027_220)"/>
<defs>
<linearGradient id="paint0_linear_2027_220" x1="14.1213" y1="22.0743" x2="20.0106" y2="9.6632" gradientUnits="userSpaceOnUse">
<stop stop-color="#A4F5B9"/>
<stop offset="1" stop-color="#FFD058"/>
</linearGradient>
</defs>
</svg>