<svg width="36" height="36" viewBox="0 0 36 36" fill="none" xmlns="http://www.w3.org/2000/svg">
<rect width="36" height="36" fill="white"/>
<path d="M20.3979 35.1846V25.3992C20.3979 18.577 25.928 13.0466 32.7502 13.0466V22.8323C32.7502 29.6542 27.2199 35.1846 20.3979 35.1846Z" fill="#2A1567"/>
<path d="M17.2575 28.6738V14.508C17.2575 6.90967 11.0981 0.750202 3.5 0.750202V14.916C3.5 22.5144 9.65948 28.6738 17.2575 28.6738Z" fill="#2A1567"/>
<path d="M29.74 6.63756C29.74 9.21726 27.6487 11.3086 25.0687 11.3086C22.489 11.3086 20.3979 9.21726 20.3979 6.63756C20.3979 4.05786 22.489 1.96653 25.0687 1.96653C27.6487 1.96653 29.74 4.05786 29.74 6.63756Z" fill="#00A6C7"/>
</svg>
