<svg width="2456" height="1636" viewBox="0 0 2456 1636" fill="none" xmlns="http://www.w3.org/2000/svg">
<g opacity="0.5">
<path d="M55.3072 1636H49.4035C36.2243 1621.03 20.4221 1607.24 4.55321 1594.01C3.14692 1592.83 1.62948 1591.57 0 1590.22V1584.42C2.74544 1586.68 5.22279 1588.74 7.42114 1590.58C24.484 1604.8 41.4466 1619.67 55.3072 1636Z" fill="#0A2D2D"/>
<path d="M55.3072 1636H49.4035C36.2243 1621.03 20.4221 1607.24 4.55321 1594.01C3.14692 1592.83 1.62948 1591.57 0 1590.22V1584.42C2.74544 1586.68 5.22279 1588.74 7.42114 1590.58C24.484 1604.8 41.4466 1619.67 55.3072 1636Z" fill="url(#paint0_linear_2103_2120)" fill-opacity="0.2"/>
<path d="M55.3072 1636H49.4035C36.2243 1621.03 20.4221 1607.24 4.55321 1594.01C3.14692 1592.83 1.62948 1591.57 0 1590.22V1584.42C2.74544 1586.68 5.22279 1588.74 7.42114 1590.58C24.484 1604.8 41.4466 1619.67 55.3072 1636Z" fill="url(#paint1_linear_2103_2120)" fill-opacity="0.2"/>
<path d="M135.165 1636H129.976C115.111 1611.11 91.1626 1589.69 67.0248 1569.57C53.8673 1558.6 31.0015 1539.86 0 1514.62V1508.86C32.4523 1535.27 56.3338 1554.84 69.8927 1566.14C95.0912 1587.14 120.089 1609.56 135.165 1636Z" fill="#0A2D2D"/>
<path d="M135.165 1636H129.976C115.111 1611.11 91.1626 1589.69 67.0248 1569.57C53.8673 1558.6 31.0015 1539.86 0 1514.62V1508.86C32.4523 1535.27 56.3338 1554.84 69.8927 1566.14C95.0912 1587.14 120.089 1609.56 135.165 1636Z" fill="url(#paint2_linear_2103_2120)" fill-opacity="0.2"/>
<path d="M135.165 1636H129.976C115.111 1611.11 91.1626 1589.69 67.0248 1569.57C53.8673 1558.6 31.0015 1539.86 0 1514.62V1508.86C32.4523 1535.27 56.3338 1554.84 69.8927 1566.14C95.0912 1587.14 120.089 1609.56 135.165 1636Z" fill="url(#paint3_linear_2103_2120)" fill-opacity="0.2"/>
<path d="M208.138 1636H203.473C192.559 1600.21 161.189 1571.55 129.496 1545.13C108.65 1527.74 63.3644 1490.81 0 1439.41V1433.68C64.8709 1486.27 111.194 1524.05 132.364 1541.7C164.973 1568.9 197.257 1598.45 208.138 1636Z" fill="#0A2D2D"/>
<path d="M208.138 1636H203.473C192.559 1600.21 161.189 1571.55 129.496 1545.13C108.65 1527.74 63.3644 1490.81 0 1439.41V1433.68C64.8709 1486.27 111.194 1524.05 132.364 1541.7C164.973 1568.9 197.257 1598.45 208.138 1636Z" fill="url(#paint4_linear_2103_2120)" fill-opacity="0.2"/>
<path d="M208.138 1636H203.473C192.559 1600.21 161.189 1571.55 129.496 1545.13C108.65 1527.74 63.3644 1490.81 0 1439.41V1433.68C64.8709 1486.27 111.194 1524.05 132.364 1541.7C164.973 1568.9 197.257 1598.45 208.138 1636Z" fill="url(#paint5_linear_2103_2120)" fill-opacity="0.2"/>
<path d="M274.415 1636H269.951C269.873 1633.11 269.661 1630.22 269.304 1627.33C263.969 1583.98 228.181 1550.88 191.968 1520.69C164.783 1498.02 96.1287 1442.18 0 1364.36V1358.63C97.6352 1437.64 167.383 1494.37 194.836 1517.26C231.729 1548.03 268.21 1581.82 273.734 1626.78C274.113 1629.86 274.337 1632.93 274.415 1636Z" fill="#0A2D2D"/>
<path d="M274.415 1636H269.951C269.873 1633.11 269.661 1630.22 269.304 1627.33C263.969 1583.98 228.181 1550.88 191.968 1520.69C164.783 1498.02 96.1287 1442.18 0 1364.36V1358.63C97.6352 1437.64 167.383 1494.37 194.836 1517.26C231.729 1548.03 268.21 1581.82 273.734 1626.78C274.113 1629.86 274.337 1632.93 274.415 1636Z" fill="url(#paint6_linear_2103_2120)" fill-opacity="0.2"/>
<path d="M274.415 1636H269.951C269.873 1633.11 269.661 1630.22 269.304 1627.33C263.969 1583.98 228.181 1550.88 191.968 1520.69C164.783 1498.02 96.1287 1442.18 0 1364.36V1358.63C97.6352 1437.64 167.383 1494.37 194.836 1517.26C231.729 1548.03 268.21 1581.82 273.734 1626.78C274.113 1629.86 274.337 1632.93 274.415 1636Z" fill="url(#paint7_linear_2103_2120)" fill-opacity="0.2"/>
<path d="M334.956 1636H330.414C332.389 1625.08 333.137 1613.97 331.775 1602.89C326.452 1559.54 290.652 1526.45 254.439 1496.26C221.686 1468.95 128.704 1393.44 0 1289.42V1283.67C130.188 1388.9 224.308 1465.31 257.307 1492.83C294.201 1523.59 330.682 1557.38 336.206 1602.34C337.601 1613.67 336.886 1624.95 334.956 1636Z" fill="#0A2D2D"/>
<path d="M334.956 1636H330.414C332.389 1625.08 333.137 1613.97 331.775 1602.89C326.452 1559.54 290.652 1526.45 254.439 1496.26C221.686 1468.95 128.704 1393.44 0 1289.42V1283.67C130.188 1388.9 224.308 1465.31 257.307 1492.83C294.201 1523.59 330.682 1557.38 336.206 1602.34C337.601 1613.67 336.886 1624.95 334.956 1636Z" fill="url(#paint8_linear_2103_2120)" fill-opacity="0.2"/>
<path d="M334.956 1636H330.414C332.389 1625.08 333.137 1613.97 331.775 1602.89C326.452 1559.54 290.652 1526.45 254.439 1496.26C221.686 1468.95 128.704 1393.44 0 1289.42V1283.67C130.188 1388.9 224.308 1465.31 257.307 1492.83C294.201 1523.59 330.682 1557.38 336.206 1602.34C337.601 1613.67 336.886 1624.95 334.956 1636Z" fill="url(#paint9_linear_2103_2120)" fill-opacity="0.2"/>
<path d="M391.39 1636H386.714C392.495 1617.5 396.646 1597.93 394.247 1578.45C388.924 1535.1 353.124 1502.01 316.922 1471.82C279.08 1440.27 160.843 1344.39 0 1214.49V1208.75C162.294 1339.82 281.713 1436.65 319.779 1468.39C356.672 1499.15 393.153 1532.95 398.677 1577.91C401.11 1597.74 397.104 1617.43 391.39 1636Z" fill="#0A2D2D"/>
<path d="M391.39 1636H386.714C392.495 1617.5 396.646 1597.93 394.247 1578.45C388.924 1535.1 353.124 1502.01 316.922 1471.82C279.08 1440.27 160.843 1344.39 0 1214.49V1208.75C162.294 1339.82 281.713 1436.65 319.779 1468.39C356.672 1499.15 393.153 1532.95 398.677 1577.91C401.11 1597.74 397.104 1617.43 391.39 1636Z" fill="url(#paint10_linear_2103_2120)" fill-opacity="0.2"/>
<path d="M391.39 1636H386.714C392.495 1617.5 396.646 1597.93 394.247 1578.45C388.924 1535.1 353.124 1502.01 316.922 1471.82C279.08 1440.27 160.843 1344.39 0 1214.49V1208.75C162.294 1339.82 281.713 1436.65 319.779 1468.39C356.672 1499.15 393.153 1532.95 398.677 1577.91C401.11 1597.74 397.104 1617.43 391.39 1636Z" fill="url(#paint11_linear_2103_2120)" fill-opacity="0.2"/>
<path d="M445.492 1636H440.749C440.76 1635.97 440.771 1635.93 440.782 1635.9C449.877 1610.78 460.2 1582.31 456.718 1554.02C451.395 1510.67 415.595 1477.57 379.393 1447.38C336.808 1411.87 192.381 1294.88 0 1139.61V1133.87C193.809 1290.3 339.442 1408.26 382.25 1443.95C419.144 1474.71 455.625 1508.51 461.149 1553.47C464.686 1582.29 454.631 1610.76 445.492 1636Z" fill="#0A2D2D"/>
<path d="M445.492 1636H440.749C440.76 1635.97 440.771 1635.93 440.782 1635.9C449.877 1610.78 460.2 1582.31 456.718 1554.02C451.395 1510.67 415.595 1477.57 379.393 1447.38C336.808 1411.87 192.381 1294.88 0 1139.61V1133.87C193.809 1290.3 339.442 1408.26 382.25 1443.95C419.144 1474.71 455.625 1508.51 461.149 1553.47C464.686 1582.29 454.631 1610.76 445.492 1636Z" fill="url(#paint12_linear_2103_2120)" fill-opacity="0.2"/>
<path d="M445.492 1636H440.749C440.76 1635.97 440.771 1635.93 440.782 1635.9C449.877 1610.78 460.2 1582.31 456.718 1554.02C451.395 1510.67 415.595 1477.57 379.393 1447.38C336.808 1411.87 192.381 1294.88 0 1139.61V1133.87C193.809 1290.3 339.442 1408.26 382.25 1443.95C419.144 1474.71 455.625 1508.51 461.149 1553.47C464.686 1582.29 454.631 1610.76 445.492 1636Z" fill="url(#paint13_linear_2103_2120)" fill-opacity="0.2"/>
<path d="M507.45 1612.98C504.972 1619.83 502.261 1627.53 499.359 1636H494.65C497.741 1626.93 500.62 1618.71 503.254 1611.46C512.36 1586.34 522.671 1557.87 519.19 1529.58C513.867 1486.24 478.067 1453.13 441.865 1422.94C394.782 1383.68 223.215 1244.83 0 1064.76V1059.04C224.609 1240.21 397.427 1380.09 444.722 1419.51C481.615 1450.28 518.096 1484.07 523.62 1529.03C527.225 1558.39 516.723 1587.39 507.45 1612.98Z" fill="#0A2D2D"/>
<path d="M507.45 1612.98C504.972 1619.83 502.261 1627.53 499.359 1636H494.65C497.741 1626.93 500.62 1618.71 503.254 1611.46C512.36 1586.34 522.671 1557.87 519.19 1529.58C513.867 1486.24 478.067 1453.13 441.865 1422.94C394.782 1383.68 223.215 1244.83 0 1064.76V1059.04C224.609 1240.21 397.427 1380.09 444.722 1419.51C481.615 1450.28 518.096 1484.07 523.62 1529.03C527.225 1558.39 516.723 1587.39 507.45 1612.98Z" fill="url(#paint14_linear_2103_2120)" fill-opacity="0.2"/>
<path d="M507.45 1612.98C504.972 1619.83 502.261 1627.53 499.359 1636H494.65C497.741 1626.93 500.62 1618.71 503.254 1611.46C512.36 1586.34 522.671 1557.87 519.19 1529.58C513.867 1486.24 478.067 1453.13 441.865 1422.94C394.782 1383.68 223.215 1244.83 0 1064.76V1059.04C224.609 1240.21 397.427 1380.09 444.722 1419.51C481.615 1450.28 518.096 1484.07 523.62 1529.03C527.225 1558.39 516.723 1587.39 507.45 1612.98Z" fill="url(#paint15_linear_2103_2120)" fill-opacity="0.2"/>
<path d="M569.921 1588.54C565.234 1601.48 559.744 1617.49 553.595 1636H548.897C555.246 1616.84 560.904 1600.32 565.725 1587.02C574.832 1561.9 585.143 1533.43 581.661 1505.14C576.338 1461.8 540.538 1428.7 504.336 1398.5C452.946 1355.66 253.279 1194.17 0 989.936V984.222C254.629 1189.51 455.602 1352.05 507.193 1395.07C544.087 1425.84 580.568 1459.63 586.092 1504.59C589.696 1533.96 579.195 1562.95 569.921 1588.54Z" fill="#0A2D2D"/>
<path d="M569.921 1588.54C565.234 1601.48 559.744 1617.49 553.595 1636H548.897C555.246 1616.84 560.904 1600.32 565.725 1587.02C574.832 1561.9 585.143 1533.43 581.661 1505.14C576.338 1461.8 540.538 1428.7 504.336 1398.5C452.946 1355.66 253.279 1194.17 0 989.936V984.222C254.629 1189.51 455.602 1352.05 507.193 1395.07C544.087 1425.84 580.568 1459.63 586.092 1504.59C589.696 1533.96 579.195 1562.95 569.921 1588.54Z" fill="url(#paint16_linear_2103_2120)" fill-opacity="0.2"/>
<path d="M569.921 1588.54C565.234 1601.48 559.744 1617.49 553.595 1636H548.897C555.246 1616.84 560.904 1600.32 565.725 1587.02C574.832 1561.9 585.143 1533.43 581.661 1505.14C576.338 1461.8 540.538 1428.7 504.336 1398.5C452.946 1355.66 253.279 1194.17 0 989.936V984.222C254.629 1189.51 455.602 1352.05 507.193 1395.07C544.087 1425.84 580.568 1459.63 586.092 1504.59C589.696 1533.96 579.195 1562.95 569.921 1588.54Z" fill="url(#paint17_linear_2103_2120)" fill-opacity="0.2"/>
<path d="M632.393 1564.11C625.742 1582.46 617.506 1606.92 608.065 1636H603.367C613.009 1606.26 621.434 1581.26 628.197 1562.58C637.303 1537.47 647.614 1509 644.133 1480.7C638.81 1437.36 603.009 1404.26 566.808 1374.07C511.266 1327.76 282.472 1142.82 0 915.144V909.419C283.789 1138.15 513.922 1324.17 569.665 1370.63C606.558 1401.4 643.039 1435.19 648.563 1480.16C652.168 1509.52 641.666 1538.52 632.393 1564.11Z" fill="#0A2D2D"/>
<path d="M632.393 1564.11C625.742 1582.46 617.506 1606.92 608.065 1636H603.367C613.009 1606.26 621.434 1581.26 628.197 1562.58C637.303 1537.47 647.614 1509 644.133 1480.7C638.81 1437.36 603.009 1404.26 566.808 1374.07C511.266 1327.76 282.472 1142.82 0 915.144V909.419C283.789 1138.15 513.922 1324.17 569.665 1370.63C606.558 1401.4 643.039 1435.19 648.563 1480.16C652.168 1509.52 641.666 1538.52 632.393 1564.11Z" fill="url(#paint18_linear_2103_2120)" fill-opacity="0.2"/>
<path d="M632.393 1564.11C625.742 1582.46 617.506 1606.92 608.065 1636H603.367C613.009 1606.26 621.434 1581.26 628.197 1562.58C637.303 1537.47 647.614 1509 644.133 1480.7C638.81 1437.36 603.009 1404.26 566.808 1374.07C511.266 1327.76 282.472 1142.82 0 915.144V909.419C283.789 1138.15 513.922 1324.17 569.665 1370.63C606.558 1401.4 643.039 1435.19 648.563 1480.16C652.168 1509.52 641.666 1538.52 632.393 1564.11Z" fill="url(#paint19_linear_2103_2120)" fill-opacity="0.2"/>
<path d="M694.864 1539.67C686.428 1562.95 675.424 1596.08 662.658 1636H657.971C670.938 1595.41 682.12 1561.73 690.668 1538.14C699.774 1513.03 710.086 1484.55 706.604 1456.26C701.281 1412.92 665.481 1379.82 629.279 1349.63C569.687 1299.95 310.728 1090.74 0 840.352V834.639C311.989 1086.03 572.354 1296.36 632.136 1346.21C669.03 1376.96 705.51 1410.75 711.035 1455.73C714.639 1485.08 704.138 1514.08 694.864 1539.67Z" fill="#0A2D2D"/>
<path d="M694.864 1539.67C686.428 1562.95 675.424 1596.08 662.658 1636H657.971C670.938 1595.41 682.12 1561.73 690.668 1538.14C699.774 1513.03 710.086 1484.55 706.604 1456.26C701.281 1412.92 665.481 1379.82 629.279 1349.63C569.687 1299.95 310.728 1090.74 0 840.352V834.639C311.989 1086.03 572.354 1296.36 632.136 1346.21C669.03 1376.96 705.51 1410.75 711.035 1455.73C714.639 1485.08 704.138 1514.08 694.864 1539.67Z" fill="url(#paint20_linear_2103_2120)" fill-opacity="0.2"/>
<path d="M694.864 1539.67C686.428 1562.95 675.424 1596.08 662.658 1636H657.971C670.938 1595.41 682.12 1561.73 690.668 1538.14C699.774 1513.03 710.086 1484.55 706.604 1456.26C701.281 1412.92 665.481 1379.82 629.279 1349.63C569.687 1299.95 310.728 1090.74 0 840.352V834.639C311.989 1086.03 572.354 1296.36 632.136 1346.21C669.03 1376.96 705.51 1410.75 711.035 1455.73C714.639 1485.08 704.138 1514.08 694.864 1539.67Z" fill="url(#paint21_linear_2103_2120)" fill-opacity="0.2"/>
<path d="M757.336 1515.23C747.236 1543.11 733.443 1585.12 717.362 1636H712.675C728.968 1584.46 742.929 1541.89 753.14 1513.71C762.246 1488.59 772.557 1460.11 769.076 1431.82C763.753 1388.48 727.952 1355.38 691.751 1325.19C628.208 1272.21 337.969 1037.84 0 765.594V759.858C339.185 1033.1 630.875 1268.62 694.608 1321.77C731.501 1352.52 767.982 1386.31 773.506 1431.29C777.111 1460.64 766.609 1489.64 757.336 1515.23Z" fill="#0A2D2D"/>
<path d="M757.336 1515.23C747.236 1543.11 733.443 1585.12 717.362 1636H712.675C728.968 1584.46 742.929 1541.89 753.14 1513.71C762.246 1488.59 772.557 1460.11 769.076 1431.82C763.753 1388.48 727.952 1355.38 691.751 1325.19C628.208 1272.21 337.969 1037.84 0 765.594V759.858C339.185 1033.1 630.875 1268.62 694.608 1321.77C731.501 1352.52 767.982 1386.31 773.506 1431.29C777.111 1460.64 766.609 1489.64 757.336 1515.23Z" fill="url(#paint22_linear_2103_2120)" fill-opacity="0.2"/>
<path d="M757.336 1515.23C747.236 1543.11 733.443 1585.12 717.362 1636H712.675C728.968 1584.46 742.929 1541.89 753.14 1513.71C762.246 1488.59 772.557 1460.11 769.076 1431.82C763.753 1388.48 727.952 1355.38 691.751 1325.19C628.208 1272.21 337.969 1037.84 0 765.594V759.858C339.185 1033.1 630.875 1268.62 694.608 1321.77C731.501 1352.52 767.982 1386.31 773.506 1431.29C777.111 1460.64 766.609 1489.64 757.336 1515.23Z" fill="url(#paint23_linear_2103_2120)" fill-opacity="0.2"/>
<path d="M819.807 1490.79C808.134 1523.02 791.529 1574.14 772.145 1636H767.457C787.043 1573.48 803.827 1521.79 815.611 1489.27C824.717 1464.15 835.029 1435.68 831.547 1407.39C826.224 1364.04 790.424 1330.94 754.222 1300.75C686.796 1244.54 364.116 984.077 0 690.825V685.111C365.276 979.289 689.463 1240.95 757.079 1297.33C793.973 1328.08 830.453 1361.89 835.978 1406.85C839.593 1436.2 829.081 1465.2 819.807 1490.79Z" fill="#0A2D2D"/>
<path d="M819.807 1490.79C808.134 1523.02 791.529 1574.14 772.145 1636H767.457C787.043 1573.48 803.827 1521.79 815.611 1489.27C824.717 1464.15 835.029 1435.68 831.547 1407.39C826.224 1364.04 790.424 1330.94 754.222 1300.75C686.796 1244.54 364.116 984.077 0 690.825V685.111C365.276 979.289 689.463 1240.95 757.079 1297.33C793.973 1328.08 830.453 1361.89 835.978 1406.85C839.593 1436.2 829.081 1465.2 819.807 1490.79Z" fill="url(#paint24_linear_2103_2120)" fill-opacity="0.2"/>
<path d="M819.807 1490.79C808.134 1523.02 791.529 1574.14 772.145 1636H767.457C787.043 1573.48 803.827 1521.79 815.611 1489.27C824.717 1464.15 835.029 1435.68 831.547 1407.39C826.224 1364.04 790.424 1330.94 754.222 1300.75C686.796 1244.54 364.116 984.077 0 690.825V685.111C365.276 979.289 689.463 1240.95 757.079 1297.33C793.973 1328.08 830.453 1361.89 835.978 1406.85C839.593 1436.2 829.081 1465.2 819.807 1490.79Z" fill="url(#paint25_linear_2103_2120)" fill-opacity="0.2"/>
<path d="M882.279 1466.35C869.099 1502.73 849.637 1563.19 826.983 1636H822.307C845.151 1562.54 864.792 1501.5 878.083 1464.83C887.189 1439.71 897.5 1411.24 894.019 1382.95C888.696 1339.61 852.895 1306.51 816.694 1276.31C745.44 1216.9 389.069 929.361 0 616.089V610.353C390.173 924.518 748.107 1213.32 819.551 1272.89C856.444 1303.65 892.925 1337.45 898.449 1382.41C902.065 1411.76 891.552 1440.76 882.279 1466.35Z" fill="#0A2D2D"/>
<path d="M882.279 1466.35C869.099 1502.73 849.637 1563.19 826.983 1636H822.307C845.151 1562.54 864.792 1501.5 878.083 1464.83C887.189 1439.71 897.5 1411.24 894.019 1382.95C888.696 1339.61 852.895 1306.51 816.694 1276.31C745.44 1216.9 389.069 929.361 0 616.089V610.353C390.173 924.518 748.107 1213.32 819.551 1272.89C856.444 1303.65 892.925 1337.45 898.449 1382.41C902.065 1411.76 891.552 1440.76 882.279 1466.35Z" fill="url(#paint26_linear_2103_2120)" fill-opacity="0.2"/>
<path d="M882.279 1466.35C869.099 1502.73 849.637 1563.19 826.983 1636H822.307C845.151 1562.54 864.792 1501.5 878.083 1464.83C887.189 1439.71 897.5 1411.24 894.019 1382.95C888.696 1339.61 852.895 1306.51 816.694 1276.31C745.44 1216.9 389.069 929.361 0 616.089V610.353C390.173 924.518 748.107 1213.32 819.551 1272.89C856.444 1303.65 892.925 1337.45 898.449 1382.41C902.065 1411.76 891.552 1440.76 882.279 1466.35Z" fill="url(#paint27_linear_2103_2120)" fill-opacity="0.2"/>
<path d="M944.75 1441.91C930.12 1482.3 907.756 1552.34 881.866 1636H877.19C903.27 1551.7 925.824 1481.06 940.554 1440.39C949.66 1415.27 959.972 1386.82 956.49 1358.52C951.167 1315.17 915.367 1282.07 879.165 1251.87C804.106 1189.29 412.727 873.619 0 541.353V535.628C413.765 868.72 806.784 1185.71 882.022 1248.45C918.916 1279.22 955.396 1313.01 960.92 1357.97C964.536 1387.33 954.024 1416.33 944.75 1441.91Z" fill="#0A2D2D"/>
<path d="M944.75 1441.91C930.12 1482.3 907.756 1552.34 881.866 1636H877.19C903.27 1551.7 925.824 1481.06 940.554 1440.39C949.66 1415.27 959.972 1386.82 956.49 1358.52C951.167 1315.17 915.367 1282.07 879.165 1251.87C804.106 1189.29 412.727 873.619 0 541.353V535.628C413.765 868.72 806.784 1185.71 882.022 1248.45C918.916 1279.22 955.396 1313.01 960.92 1357.97C964.536 1387.33 954.024 1416.33 944.75 1441.91Z" fill="url(#paint28_linear_2103_2120)" fill-opacity="0.2"/>
<path d="M944.75 1441.91C930.12 1482.3 907.756 1552.34 881.866 1636H877.19C903.27 1551.7 925.824 1481.06 940.554 1440.39C949.66 1415.27 959.972 1386.82 956.49 1358.52C951.167 1315.17 915.367 1282.07 879.165 1251.87C804.106 1189.29 412.727 873.619 0 541.353V535.628C413.765 868.72 806.784 1185.71 882.022 1248.45C918.916 1279.22 955.396 1313.01 960.92 1357.97C964.536 1387.33 954.024 1416.33 944.75 1441.91Z" fill="url(#paint29_linear_2103_2120)" fill-opacity="0.2"/>
<path d="M1007.23 1417.48C991.197 1461.74 965.864 1541.61 936.793 1636H932.129C961.378 1540.97 986.889 1460.49 1003.03 1415.95C1012.13 1390.84 1022.44 1362.38 1018.96 1334.08C1013.64 1290.73 977.839 1257.63 941.637 1227.45C862.805 1161.7 434.979 816.75 0 466.628V460.903C435.95 811.806 865.472 1158.12 944.494 1224.01C981.387 1254.78 1017.87 1288.57 1023.39 1333.53C1027.01 1362.89 1016.5 1391.89 1007.23 1417.48Z" fill="#0A2D2D"/>
<path d="M1007.23 1417.48C991.197 1461.74 965.864 1541.61 936.793 1636H932.129C961.378 1540.97 986.889 1460.49 1003.03 1415.95C1012.13 1390.84 1022.44 1362.38 1018.96 1334.08C1013.64 1290.73 977.839 1257.63 941.637 1227.45C862.805 1161.7 434.979 816.75 0 466.628V460.903C435.95 811.806 865.472 1158.12 944.494 1224.01C981.387 1254.78 1017.87 1288.57 1023.39 1333.53C1027.01 1362.89 1016.5 1391.89 1007.23 1417.48Z" fill="url(#paint30_linear_2103_2120)" fill-opacity="0.2"/>
<path d="M1007.23 1417.48C991.197 1461.74 965.864 1541.61 936.793 1636H932.129C961.378 1540.97 986.889 1460.49 1003.03 1415.95C1012.13 1390.84 1022.44 1362.38 1018.96 1334.08C1013.64 1290.73 977.839 1257.63 941.637 1227.45C862.805 1161.7 434.979 816.75 0 466.628V460.903C435.95 811.806 865.472 1158.12 944.494 1224.01C981.387 1254.78 1017.87 1288.57 1023.39 1333.53C1027.01 1362.89 1016.5 1391.89 1007.23 1417.48Z" fill="url(#paint31_linear_2103_2120)" fill-opacity="0.2"/>
<path d="M1069.7 1393.04C1052.31 1441.07 1023.95 1531.05 991.754 1636H987.09C1019.46 1530.42 1048 1439.82 1065.51 1391.51C1074.6 1366.41 1084.91 1337.94 1081.43 1309.64C1076.11 1266.29 1040.31 1233.19 1004.11 1203.01C921.494 1134.12 455.691 758.642 0 391.915V386.19C456.595 753.642 924.172 1130.55 1006.97 1199.58C1043.86 1230.34 1080.34 1264.13 1085.86 1309.1C1089.48 1338.45 1078.97 1367.45 1069.7 1393.04Z" fill="#0A2D2D"/>
<path d="M1069.7 1393.04C1052.31 1441.07 1023.95 1531.05 991.754 1636H987.09C1019.46 1530.42 1048 1439.82 1065.51 1391.51C1074.6 1366.41 1084.91 1337.94 1081.43 1309.64C1076.11 1266.29 1040.31 1233.19 1004.11 1203.01C921.494 1134.12 455.691 758.642 0 391.915V386.19C456.595 753.642 924.172 1130.55 1006.97 1199.58C1043.86 1230.34 1080.34 1264.13 1085.86 1309.1C1089.48 1338.45 1078.97 1367.45 1069.7 1393.04Z" fill="url(#paint32_linear_2103_2120)" fill-opacity="0.2"/>
<path d="M1069.7 1393.04C1052.31 1441.07 1023.95 1531.05 991.754 1636H987.09C1019.46 1530.42 1048 1439.82 1065.51 1391.51C1074.6 1366.41 1084.91 1337.94 1081.43 1309.64C1076.11 1266.29 1040.31 1233.19 1004.11 1203.01C921.494 1134.12 455.691 758.642 0 391.915V386.19C456.595 753.642 924.172 1130.55 1006.97 1199.58C1043.86 1230.34 1080.34 1264.13 1085.86 1309.1C1089.48 1338.45 1078.97 1367.45 1069.7 1393.04Z" fill="url(#paint33_linear_2103_2120)" fill-opacity="0.2"/>
<path d="M1132.18 1368.6C1113.44 1420.32 1082 1520.69 1046.74 1636H1042.07C1077.52 1520.07 1109.14 1419.08 1127.98 1367.09C1137.08 1341.97 1147.39 1313.5 1143.9 1285.21C1138.58 1241.85 1102.79 1208.75 1066.58 1178.57C980.193 1106.53 474.73 699.195 0 317.201V311.476C475.544 694.128 982.86 1102.95 1069.44 1175.14C1106.33 1205.9 1142.81 1239.7 1148.33 1284.66C1151.95 1314.01 1141.44 1343.01 1132.18 1368.6Z" fill="#0A2D2D"/>
<path d="M1132.18 1368.6C1113.44 1420.32 1082 1520.69 1046.74 1636H1042.07C1077.52 1520.07 1109.14 1419.08 1127.98 1367.09C1137.08 1341.97 1147.39 1313.5 1143.9 1285.21C1138.58 1241.85 1102.79 1208.75 1066.58 1178.57C980.193 1106.53 474.73 699.195 0 317.201V311.476C475.544 694.128 982.86 1102.95 1069.44 1175.14C1106.33 1205.9 1142.81 1239.7 1148.33 1284.66C1151.95 1314.01 1141.44 1343.01 1132.18 1368.6Z" fill="url(#paint34_linear_2103_2120)" fill-opacity="0.2"/>
<path d="M1132.18 1368.6C1113.44 1420.32 1082 1520.69 1046.74 1636H1042.07C1077.52 1520.07 1109.14 1419.08 1127.98 1367.09C1137.08 1341.97 1147.39 1313.5 1143.9 1285.21C1138.58 1241.85 1102.79 1208.75 1066.58 1178.57C980.193 1106.53 474.73 699.195 0 317.201V311.476C475.544 694.128 982.86 1102.95 1069.44 1175.14C1106.33 1205.9 1142.81 1239.7 1148.33 1284.66C1151.95 1314.01 1141.44 1343.01 1132.18 1368.6Z" fill="url(#paint35_linear_2103_2120)" fill-opacity="0.2"/>
<path d="M1194.65 1344.16C1174.59 1399.5 1140.01 1510.54 1101.74 1636H1097.08C1135.52 1509.95 1170.31 1398.27 1190.45 1342.65C1199.55 1317.53 1209.86 1289.06 1206.38 1260.77C1201.05 1217.42 1165.26 1184.31 1129.05 1154.13C1038.86 1078.92 491.882 638.241 0 242.51V236.774C492.619 633.107 1041.53 1075.34 1131.91 1150.7C1168.8 1181.47 1205.28 1215.26 1210.82 1260.22C1214.42 1289.57 1203.91 1318.58 1194.65 1344.16Z" fill="#0A2D2D"/>
<path d="M1194.65 1344.16C1174.59 1399.5 1140.01 1510.54 1101.74 1636H1097.08C1135.52 1509.95 1170.31 1398.27 1190.45 1342.65C1199.55 1317.53 1209.86 1289.06 1206.38 1260.77C1201.05 1217.42 1165.26 1184.31 1129.05 1154.13C1038.86 1078.92 491.882 638.241 0 242.51V236.774C492.619 633.107 1041.53 1075.34 1131.91 1150.7C1168.8 1181.47 1205.28 1215.26 1210.82 1260.22C1214.42 1289.57 1203.91 1318.58 1194.65 1344.16Z" fill="url(#paint36_linear_2103_2120)" fill-opacity="0.2"/>
<path d="M1194.65 1344.16C1174.59 1399.5 1140.01 1510.54 1101.74 1636H1097.08C1135.52 1509.95 1170.31 1398.27 1190.45 1342.65C1199.55 1317.53 1209.86 1289.06 1206.38 1260.77C1201.05 1217.42 1165.26 1184.31 1129.05 1154.13C1038.86 1078.92 491.882 638.241 0 242.51V236.774C492.619 633.107 1041.53 1075.34 1131.91 1150.7C1168.8 1181.47 1205.28 1215.26 1210.82 1260.22C1214.42 1289.57 1203.91 1318.58 1194.65 1344.16Z" fill="url(#paint37_linear_2103_2120)" fill-opacity="0.2"/>
<path d="M1257.12 1319.72C1235.77 1378.64 1197.96 1500.66 1156.78 1636H1152.12C1193.46 1500.07 1231.49 1377.39 1252.92 1318.21C1262.02 1293.09 1272.33 1264.62 1268.85 1236.33C1263.52 1192.98 1227.74 1159.89 1191.52 1129.69C1097.49 1051.29 506.959 575.635 0 167.818V162.082C507.595 570.413 1100.16 1047.7 1194.38 1126.26C1231.27 1157.03 1267.75 1190.82 1273.29 1235.78C1276.89 1265.14 1266.38 1294.14 1257.12 1319.72Z" fill="#0A2D2D"/>
<path d="M1257.12 1319.72C1235.77 1378.64 1197.96 1500.66 1156.78 1636H1152.12C1193.46 1500.07 1231.49 1377.39 1252.92 1318.21C1262.02 1293.09 1272.33 1264.62 1268.85 1236.33C1263.52 1192.98 1227.74 1159.89 1191.52 1129.69C1097.49 1051.29 506.959 575.635 0 167.818V162.082C507.595 570.413 1100.16 1047.7 1194.38 1126.26C1231.27 1157.03 1267.75 1190.82 1273.29 1235.78C1276.89 1265.14 1266.38 1294.14 1257.12 1319.72Z" fill="url(#paint38_linear_2103_2120)" fill-opacity="0.2"/>
<path d="M1257.12 1319.72C1235.77 1378.64 1197.96 1500.66 1156.78 1636H1152.12C1193.46 1500.07 1231.49 1377.39 1252.92 1318.21C1262.02 1293.09 1272.33 1264.62 1268.85 1236.33C1263.52 1192.98 1227.74 1159.89 1191.52 1129.69C1097.49 1051.29 506.959 575.635 0 167.818V162.082C507.595 570.413 1100.16 1047.7 1194.38 1126.26C1231.27 1157.03 1267.75 1190.82 1273.29 1235.78C1276.89 1265.14 1266.38 1294.14 1257.12 1319.72Z" fill="url(#paint39_linear_2103_2120)" fill-opacity="0.2"/>
<path d="M1319.59 1295.28C1296.97 1357.72 1255.85 1491.05 1211.82 1636H1207.16C1251.35 1490.49 1292.67 1356.48 1315.39 1293.77C1324.49 1268.66 1334.8 1240.19 1331.33 1211.89C1326 1168.55 1290.21 1135.45 1253.99 1105.25C1156.07 1023.6 519.703 511.144 0 93.127V87.391C520.228 505.832 1158.74 1020.01 1256.85 1101.82C1293.74 1132.59 1330.23 1166.38 1335.76 1211.34C1339.37 1240.7 1328.85 1269.71 1319.59 1295.28Z" fill="#0A2D2D"/>
<path d="M1319.59 1295.28C1296.97 1357.72 1255.85 1491.05 1211.82 1636H1207.16C1251.35 1490.49 1292.67 1356.48 1315.39 1293.77C1324.49 1268.66 1334.8 1240.19 1331.33 1211.89C1326 1168.55 1290.21 1135.45 1253.99 1105.25C1156.07 1023.6 519.703 511.144 0 93.127V87.391C520.228 505.832 1158.74 1020.01 1256.85 1101.82C1293.74 1132.59 1330.23 1166.38 1335.76 1211.34C1339.37 1240.7 1328.85 1269.71 1319.59 1295.28Z" fill="url(#paint40_linear_2103_2120)" fill-opacity="0.2"/>
<path d="M1319.59 1295.28C1296.97 1357.72 1255.85 1491.05 1211.82 1636H1207.16C1251.35 1490.49 1292.67 1356.48 1315.39 1293.77C1324.49 1268.66 1334.8 1240.19 1331.33 1211.89C1326 1168.55 1290.21 1135.45 1253.99 1105.25C1156.07 1023.6 519.703 511.144 0 93.127V87.391C520.228 505.832 1158.74 1020.01 1256.85 1101.82C1293.74 1132.59 1330.23 1166.38 1335.76 1211.34C1339.37 1240.7 1328.85 1269.71 1319.59 1295.28Z" fill="url(#paint41_linear_2103_2120)" fill-opacity="0.2"/>
<path d="M1382.06 1270.86C1358.17 1336.79 1313.66 1481.76 1266.88 1636H1262.22C1309.16 1481.22 1353.88 1335.55 1377.87 1269.33C1386.96 1244.22 1397.27 1215.75 1393.8 1187.45C1388.47 1144.11 1352.68 1111.01 1316.47 1080.82C1214.58 995.861 529.802 444.532 0 18.4359V12.711C530.193 439.109 1217.23 992.268 1319.32 1077.38C1356.22 1108.15 1392.7 1141.94 1398.23 1186.9C1401.84 1216.26 1391.32 1245.27 1382.06 1270.86Z" fill="#0A2D2D"/>
<path d="M1382.06 1270.86C1358.17 1336.79 1313.66 1481.76 1266.88 1636H1262.22C1309.16 1481.22 1353.88 1335.55 1377.87 1269.33C1386.96 1244.22 1397.27 1215.75 1393.8 1187.45C1388.47 1144.11 1352.68 1111.01 1316.47 1080.82C1214.58 995.861 529.802 444.532 0 18.4359V12.711C530.193 439.109 1217.23 992.268 1319.32 1077.38C1356.22 1108.15 1392.7 1141.94 1398.23 1186.9C1401.84 1216.26 1391.32 1245.27 1382.06 1270.86Z" fill="url(#paint42_linear_2103_2120)" fill-opacity="0.2"/>
<path d="M1382.06 1270.86C1358.17 1336.79 1313.66 1481.76 1266.88 1636H1262.22C1309.16 1481.22 1353.88 1335.55 1377.87 1269.33C1386.96 1244.22 1397.27 1215.75 1393.8 1187.45C1388.47 1144.11 1352.68 1111.01 1316.47 1080.82C1214.58 995.861 529.802 444.532 0 18.4359V12.711C530.193 439.109 1217.23 992.268 1319.32 1077.38C1356.22 1108.15 1392.7 1141.94 1398.23 1186.9C1401.84 1216.26 1391.32 1245.27 1382.06 1270.86Z" fill="url(#paint43_linear_2103_2120)" fill-opacity="0.2"/>
<path d="M1444.53 1246.42C1419.39 1315.82 1371.38 1472.81 1321.95 1636H1317.27C1366.87 1472.3 1415.09 1314.58 1440.34 1244.9C1449.43 1219.78 1459.74 1191.31 1456.27 1163.01C1450.94 1119.67 1415.15 1086.57 1378.94 1056.38C1277.53 971.824 598.668 425.237 69.9263 0.000196964H77.057C605.186 424.757 1280.64 968.61 1381.79 1052.95C1418.69 1083.71 1455.17 1117.5 1460.7 1162.47C1464.31 1191.82 1453.8 1220.83 1444.53 1246.42Z" fill="#0A2D2D"/>
<path d="M1444.53 1246.42C1419.39 1315.82 1371.38 1472.81 1321.95 1636H1317.27C1366.87 1472.3 1415.09 1314.58 1440.34 1244.9C1449.43 1219.78 1459.74 1191.31 1456.27 1163.01C1450.94 1119.67 1415.15 1086.57 1378.94 1056.38C1277.53 971.824 598.668 425.237 69.9263 0.000196964H77.057C605.186 424.757 1280.64 968.61 1381.79 1052.95C1418.69 1083.71 1455.17 1117.5 1460.7 1162.47C1464.31 1191.82 1453.8 1220.83 1444.53 1246.42Z" fill="url(#paint44_linear_2103_2120)" fill-opacity="0.2"/>
<path d="M1444.53 1246.42C1419.39 1315.82 1371.38 1472.81 1321.95 1636H1317.27C1366.87 1472.3 1415.09 1314.58 1440.34 1244.9C1449.43 1219.78 1459.74 1191.31 1456.27 1163.01C1450.94 1119.67 1415.15 1086.57 1378.94 1056.38C1277.53 971.824 598.668 425.237 69.9263 0.000196964H77.057C605.186 424.757 1280.64 968.61 1381.79 1052.95C1418.69 1083.71 1455.17 1117.5 1460.7 1162.47C1464.31 1191.82 1453.8 1220.83 1444.53 1246.42Z" fill="url(#paint45_linear_2103_2120)" fill-opacity="0.2"/>
<path d="M1507 1221.98C1480.6 1294.84 1429.01 1464.24 1377.02 1636H1372.35C1424.5 1463.74 1476.32 1293.6 1502.81 1220.46C1511.9 1195.34 1522.21 1166.87 1518.74 1138.58C1513.41 1095.23 1477.62 1062.13 1441.41 1031.94C1341.93 948.991 686.806 421.465 162.785 0.000196964H169.916C693.212 420.896 1345.04 945.777 1444.27 1028.51C1481.16 1059.27 1517.65 1093.07 1523.17 1138.03C1526.78 1167.38 1516.27 1196.39 1507 1221.98Z" fill="#0A2D2D"/>
<path d="M1507 1221.98C1480.6 1294.84 1429.01 1464.24 1377.02 1636H1372.35C1424.5 1463.74 1476.32 1293.6 1502.81 1220.46C1511.9 1195.34 1522.21 1166.87 1518.74 1138.58C1513.41 1095.23 1477.62 1062.13 1441.41 1031.94C1341.93 948.991 686.806 421.465 162.785 0.000196964H169.916C693.212 420.896 1345.04 945.777 1444.27 1028.51C1481.16 1059.27 1517.65 1093.07 1523.17 1138.03C1526.78 1167.38 1516.27 1196.39 1507 1221.98Z" fill="url(#paint46_linear_2103_2120)" fill-opacity="0.2"/>
<path d="M1507 1221.98C1480.6 1294.84 1429.01 1464.24 1377.02 1636H1372.35C1424.5 1463.74 1476.32 1293.6 1502.81 1220.46C1511.9 1195.34 1522.21 1166.87 1518.74 1138.58C1513.41 1095.23 1477.62 1062.13 1441.41 1031.94C1341.93 948.991 686.806 421.465 162.785 0.000196964H169.916C693.212 420.896 1345.04 945.777 1444.27 1028.51C1481.16 1059.27 1517.65 1093.07 1523.17 1138.03C1526.78 1167.38 1516.27 1196.39 1507 1221.98Z" fill="url(#paint47_linear_2103_2120)" fill-opacity="0.2"/>
<path d="M1569.48 1197.54C1541.82 1273.85 1486.54 1456.08 1432.08 1636H1427.41C1482.01 1455.62 1537.53 1272.63 1565.28 1196.02C1574.38 1170.9 1584.69 1142.43 1581.22 1114.14C1575.88 1070.8 1540.09 1037.69 1503.88 1007.5C1406.32 926.159 774.287 417.169 255.645 0.000196964H262.764C780.604 416.521 1409.43 922.933 1506.74 1004.07C1543.63 1034.83 1580.11 1068.63 1585.65 1113.6C1589.25 1142.95 1578.75 1171.95 1569.48 1197.54Z" fill="#0A2D2D"/>
<path d="M1569.48 1197.54C1541.82 1273.85 1486.54 1456.08 1432.08 1636H1427.41C1482.01 1455.62 1537.53 1272.63 1565.28 1196.02C1574.38 1170.9 1584.69 1142.43 1581.22 1114.14C1575.88 1070.8 1540.09 1037.69 1503.88 1007.5C1406.32 926.159 774.287 417.169 255.645 0.000196964H262.764C780.604 416.521 1409.43 922.933 1506.74 1004.07C1543.63 1034.83 1580.11 1068.63 1585.65 1113.6C1589.25 1142.95 1578.75 1171.95 1569.48 1197.54Z" fill="url(#paint48_linear_2103_2120)" fill-opacity="0.2"/>
<path d="M1569.48 1197.54C1541.82 1273.85 1486.54 1456.08 1432.08 1636H1427.41C1482.01 1455.62 1537.53 1272.63 1565.28 1196.02C1574.38 1170.9 1584.69 1142.43 1581.22 1114.14C1575.88 1070.8 1540.09 1037.69 1503.88 1007.5C1406.32 926.159 774.287 417.169 255.645 0.000196964H262.764C780.604 416.521 1409.43 922.933 1506.74 1004.07C1543.63 1034.83 1580.11 1068.63 1585.65 1113.6C1589.25 1142.95 1578.75 1171.95 1569.48 1197.54Z" fill="url(#paint49_linear_2103_2120)" fill-opacity="0.2"/>
<path d="M1631.95 1173.1C1603.39 1251.94 1545.32 1443.84 1489.16 1629.43C1488.5 1631.61 1487.83 1633.81 1487.17 1636H1482.51C1483.3 1633.38 1484.09 1630.75 1484.89 1628.13C1541.05 1442.49 1599.15 1250.53 1627.75 1171.58C1636.85 1146.46 1647.16 1117.99 1643.69 1089.7C1638.35 1046.36 1602.56 1013.25 1566.35 983.061C1470.68 903.293 861.12 412.359 348.481 0.000196964H355.612C867.37 411.645 1473.81 900.079 1569.22 979.635C1606.1 1010.4 1642.59 1044.19 1648.12 1089.16C1651.72 1118.51 1641.22 1147.51 1631.95 1173.1Z" fill="#0A2D2D"/>
<path d="M1631.95 1173.1C1603.39 1251.94 1545.32 1443.84 1489.16 1629.43C1488.5 1631.61 1487.83 1633.81 1487.17 1636H1482.51C1483.3 1633.38 1484.09 1630.75 1484.89 1628.13C1541.05 1442.49 1599.15 1250.53 1627.75 1171.58C1636.85 1146.46 1647.16 1117.99 1643.69 1089.7C1638.35 1046.36 1602.56 1013.25 1566.35 983.061C1470.68 903.293 861.12 412.359 348.481 0.000196964H355.612C867.37 411.645 1473.81 900.079 1569.22 979.635C1606.1 1010.4 1642.59 1044.19 1648.12 1089.16C1651.72 1118.51 1641.22 1147.51 1631.95 1173.1Z" fill="url(#paint50_linear_2103_2120)" fill-opacity="0.2"/>
<path d="M1631.95 1173.1C1603.39 1251.94 1545.32 1443.84 1489.16 1629.43C1488.5 1631.61 1487.83 1633.81 1487.17 1636H1482.51C1483.3 1633.38 1484.09 1630.75 1484.89 1628.13C1541.05 1442.49 1599.15 1250.53 1627.75 1171.58C1636.85 1146.46 1647.16 1117.99 1643.69 1089.7C1638.35 1046.36 1602.56 1013.25 1566.35 983.061C1470.68 903.293 861.12 412.359 348.481 0.000196964H355.612C867.37 411.645 1473.81 900.079 1569.22 979.635C1606.1 1010.4 1642.59 1044.19 1648.12 1089.16C1651.72 1118.51 1641.22 1147.51 1631.95 1173.1Z" fill="url(#paint51_linear_2103_2120)" fill-opacity="0.2"/>
<path d="M1694.42 1148.67C1665.85 1227.51 1607.79 1419.41 1551.62 1604.99C1548.5 1615.31 1545.37 1625.65 1542.24 1636H1537.58C1540.84 1625.23 1544.1 1614.45 1547.36 1603.7C1603.53 1418.06 1661.62 1226.11 1690.22 1147.14C1699.32 1122.02 1709.63 1093.55 1706.16 1065.26C1700.83 1021.92 1665.04 988.82 1628.82 958.622C1535.04 880.426 947.396 407.092 441.341 0.000196964H448.472C953.567 406.322 1538.15 877.201 1631.69 955.196C1668.59 985.963 1705.07 1019.75 1710.59 1064.72C1714.19 1094.08 1703.69 1123.08 1694.42 1148.67Z" fill="#0A2D2D"/>
<path d="M1694.42 1148.67C1665.85 1227.51 1607.79 1419.41 1551.62 1604.99C1548.5 1615.31 1545.37 1625.65 1542.24 1636H1537.58C1540.84 1625.23 1544.1 1614.45 1547.36 1603.7C1603.53 1418.06 1661.62 1226.11 1690.22 1147.14C1699.32 1122.02 1709.63 1093.55 1706.16 1065.26C1700.83 1021.92 1665.04 988.82 1628.82 958.622C1535.04 880.426 947.396 407.092 441.341 0.000196964H448.472C953.567 406.322 1538.15 877.201 1631.69 955.196C1668.59 985.963 1705.07 1019.75 1710.59 1064.72C1714.19 1094.08 1703.69 1123.08 1694.42 1148.67Z" fill="url(#paint52_linear_2103_2120)" fill-opacity="0.2"/>
<path d="M1694.42 1148.67C1665.85 1227.51 1607.79 1419.41 1551.62 1604.99C1548.5 1615.31 1545.37 1625.65 1542.24 1636H1537.58C1540.84 1625.23 1544.1 1614.45 1547.36 1603.7C1603.53 1418.06 1661.62 1226.11 1690.22 1147.14C1699.32 1122.02 1709.63 1093.55 1706.16 1065.26C1700.83 1021.92 1665.04 988.82 1628.82 958.622C1535.04 880.426 947.396 407.092 441.341 0.000196964H448.472C953.567 406.322 1538.15 877.201 1631.69 955.196C1668.59 985.963 1705.07 1019.75 1710.59 1064.72C1714.19 1094.08 1703.69 1123.08 1694.42 1148.67Z" fill="url(#paint53_linear_2103_2120)" fill-opacity="0.2"/>
<path d="M1756.89 1124.23C1728.33 1203.07 1670.26 1394.97 1614.09 1580.56C1608.5 1599.02 1602.9 1617.53 1597.31 1636H1592.65C1598.38 1617.11 1604.12 1598.16 1609.83 1579.26C1666 1393.62 1724.09 1201.67 1752.69 1122.7C1761.79 1097.59 1772.1 1069.12 1768.63 1040.82C1763.3 997.48 1727.51 964.38 1691.29 934.193C1599.38 857.549 1033.12 401.378 534.199 0.000196964H541.319C1039.21 400.552 1602.5 854.335 1694.16 930.756C1731.06 961.523 1767.54 995.315 1773.06 1040.28C1776.67 1069.64 1766.16 1098.64 1756.89 1124.23Z" fill="#0A2D2D"/>
<path d="M1756.89 1124.23C1728.33 1203.07 1670.26 1394.97 1614.09 1580.56C1608.5 1599.02 1602.9 1617.53 1597.31 1636H1592.65C1598.38 1617.11 1604.12 1598.16 1609.83 1579.26C1666 1393.62 1724.09 1201.67 1752.69 1122.7C1761.79 1097.59 1772.1 1069.12 1768.63 1040.82C1763.3 997.48 1727.51 964.38 1691.29 934.193C1599.38 857.549 1033.12 401.378 534.199 0.000196964H541.319C1039.21 400.552 1602.5 854.335 1694.16 930.756C1731.06 961.523 1767.54 995.315 1773.06 1040.28C1776.67 1069.64 1766.16 1098.64 1756.89 1124.23Z" fill="url(#paint54_linear_2103_2120)" fill-opacity="0.2"/>
<path d="M1756.89 1124.23C1728.33 1203.07 1670.26 1394.97 1614.09 1580.56C1608.5 1599.02 1602.9 1617.53 1597.31 1636H1592.65C1598.38 1617.11 1604.12 1598.16 1609.83 1579.26C1666 1393.62 1724.09 1201.67 1752.69 1122.7C1761.79 1097.59 1772.1 1069.12 1768.63 1040.82C1763.3 997.48 1727.51 964.38 1691.29 934.193C1599.38 857.549 1033.12 401.378 534.199 0.000196964H541.319C1039.21 400.552 1602.5 854.335 1694.16 930.756C1731.06 961.523 1767.54 995.315 1773.06 1040.28C1776.67 1069.64 1766.16 1098.64 1756.89 1124.23Z" fill="url(#paint55_linear_2103_2120)" fill-opacity="0.2"/>
<path d="M1819.36 1099.79C1790.8 1178.63 1732.73 1370.53 1676.56 1556.12C1668.51 1582.73 1660.42 1609.47 1652.38 1636H1647.72C1655.88 1609.05 1664.11 1581.87 1672.3 1554.82C1728.48 1369.18 1786.56 1177.23 1815.17 1098.27C1824.26 1073.15 1834.57 1044.68 1831.1 1016.38C1825.77 973.04 1789.98 939.941 1753.78 909.754C1663.72 834.661 1118.33 395.251 627.047 0.000196964H634.167C1124.33 394.37 1666.83 831.447 1756.63 906.328C1793.53 937.084 1830.01 970.886 1835.53 1015.85C1839.14 1045.2 1828.64 1074.2 1819.36 1099.79Z" fill="#0A2D2D"/>
<path d="M1819.36 1099.79C1790.8 1178.63 1732.73 1370.53 1676.56 1556.12C1668.51 1582.73 1660.42 1609.47 1652.38 1636H1647.72C1655.88 1609.05 1664.11 1581.87 1672.3 1554.82C1728.48 1369.18 1786.56 1177.23 1815.17 1098.27C1824.26 1073.15 1834.57 1044.68 1831.1 1016.38C1825.77 973.04 1789.98 939.941 1753.78 909.754C1663.72 834.661 1118.33 395.251 627.047 0.000196964H634.167C1124.33 394.37 1666.83 831.447 1756.63 906.328C1793.53 937.084 1830.01 970.886 1835.53 1015.85C1839.14 1045.2 1828.64 1074.2 1819.36 1099.79Z" fill="url(#paint56_linear_2103_2120)" fill-opacity="0.2"/>
<path d="M1819.36 1099.79C1790.8 1178.63 1732.73 1370.53 1676.56 1556.12C1668.51 1582.73 1660.42 1609.47 1652.38 1636H1647.72C1655.88 1609.05 1664.11 1581.87 1672.3 1554.82C1728.48 1369.18 1786.56 1177.23 1815.17 1098.27C1824.26 1073.15 1834.57 1044.68 1831.1 1016.38C1825.77 973.04 1789.98 939.941 1753.78 909.754C1663.72 834.661 1118.33 395.251 627.047 0.000196964H634.167C1124.33 394.37 1666.83 831.447 1756.63 906.328C1793.53 937.084 1830.01 970.886 1835.53 1015.85C1839.14 1045.2 1828.64 1074.2 1819.36 1099.79Z" fill="url(#paint57_linear_2103_2120)" fill-opacity="0.2"/>
<path d="M1881.83 1075.35C1853.28 1154.19 1795.2 1346.09 1739.04 1531.68C1728.5 1566.5 1717.9 1601.54 1707.43 1636H1702.78C1713.36 1601.11 1724.09 1565.64 1734.76 1530.38C1790.95 1344.74 1849.04 1152.79 1877.64 1073.83C1886.73 1048.71 1897.04 1020.25 1893.57 991.956C1888.25 948.601 1852.45 915.501 1816.25 885.314C1728.04 811.773 1203.04 388.745 719.895 0.000196964H727.015C1208.98 387.797 1731.15 808.547 1819.11 881.888C1856 912.644 1892.48 946.447 1898 991.409C1901.61 1020.76 1891.11 1049.76 1881.83 1075.35Z" fill="#0A2D2D"/>
<path d="M1881.83 1075.35C1853.28 1154.19 1795.2 1346.09 1739.04 1531.68C1728.5 1566.5 1717.9 1601.54 1707.43 1636H1702.78C1713.36 1601.11 1724.09 1565.64 1734.76 1530.38C1790.95 1344.74 1849.04 1152.79 1877.64 1073.83C1886.73 1048.71 1897.04 1020.25 1893.57 991.956C1888.25 948.601 1852.45 915.501 1816.25 885.314C1728.04 811.773 1203.04 388.745 719.895 0.000196964H727.015C1208.98 387.797 1731.15 808.547 1819.11 881.888C1856 912.644 1892.48 946.447 1898 991.409C1901.61 1020.76 1891.11 1049.76 1881.83 1075.35Z" fill="url(#paint58_linear_2103_2120)" fill-opacity="0.2"/>
<path d="M1881.83 1075.35C1853.28 1154.19 1795.2 1346.09 1739.04 1531.68C1728.5 1566.5 1717.9 1601.54 1707.43 1636H1702.78C1713.36 1601.11 1724.09 1565.64 1734.76 1530.38C1790.95 1344.74 1849.04 1152.79 1877.64 1073.83C1886.73 1048.71 1897.04 1020.25 1893.57 991.956C1888.25 948.601 1852.45 915.501 1816.25 885.314C1728.04 811.773 1203.04 388.745 719.895 0.000196964H727.015C1208.98 387.797 1731.15 808.547 1819.11 881.888C1856 912.644 1892.48 946.447 1898 991.409C1901.61 1020.76 1891.11 1049.76 1881.83 1075.35Z" fill="url(#paint59_linear_2103_2120)" fill-opacity="0.2"/>
<path d="M1944.31 1050.91C1915.75 1129.75 1857.67 1321.66 1801.52 1507.24C1788.48 1550.32 1775.34 1593.74 1762.49 1636H1757.82C1770.8 1593.32 1784.08 1549.46 1797.24 1505.94C1853.42 1320.3 1911.51 1128.35 1940.11 1049.39C1949.2 1024.27 1959.53 995.806 1956.05 967.516C1950.72 924.172 1914.92 891.073 1878.72 860.875C1792.36 788.873 1287.28 381.849 812.732 0.000196964H819.852C1293.16 380.855 1795.47 785.648 1881.58 857.449C1918.47 888.216 1954.95 922.007 1960.48 966.969C1964.08 996.319 1953.58 1025.32 1944.31 1050.91Z" fill="#0A2D2D"/>
<path d="M1944.31 1050.91C1915.75 1129.75 1857.67 1321.66 1801.52 1507.24C1788.48 1550.32 1775.34 1593.74 1762.49 1636H1757.82C1770.8 1593.32 1784.08 1549.46 1797.24 1505.94C1853.42 1320.3 1911.51 1128.35 1940.11 1049.39C1949.2 1024.27 1959.53 995.806 1956.05 967.516C1950.72 924.172 1914.92 891.073 1878.72 860.875C1792.36 788.873 1287.28 381.849 812.732 0.000196964H819.852C1293.16 380.855 1795.47 785.648 1881.58 857.449C1918.47 888.216 1954.95 922.007 1960.48 966.969C1964.08 996.319 1953.58 1025.32 1944.31 1050.91Z" fill="url(#paint60_linear_2103_2120)" fill-opacity="0.2"/>
<path d="M1944.31 1050.91C1915.75 1129.75 1857.67 1321.66 1801.52 1507.24C1788.48 1550.32 1775.34 1593.74 1762.49 1636H1757.82C1770.8 1593.32 1784.08 1549.46 1797.24 1505.94C1853.42 1320.3 1911.51 1128.35 1940.11 1049.39C1949.2 1024.27 1959.53 995.806 1956.05 967.516C1950.72 924.172 1914.92 891.073 1878.72 860.875C1792.36 788.873 1287.28 381.849 812.732 0.000196964H819.852C1293.16 380.855 1795.47 785.648 1881.58 857.449C1918.47 888.216 1954.95 922.007 1960.48 966.969C1964.08 996.319 1953.58 1025.32 1944.31 1050.91Z" fill="url(#paint61_linear_2103_2120)" fill-opacity="0.2"/>
<path d="M2006.78 1026.47C1978.22 1105.31 1920.14 1297.22 1863.99 1482.8C1848.42 1534.23 1832.72 1586.14 1817.52 1636H1812.87C1828.17 1585.75 1844.01 1533.38 1859.72 1481.51C1915.89 1295.87 1973.98 1103.91 2002.58 1024.95C2011.68 999.834 2022 971.366 2018.52 943.076C2013.19 899.733 1977.39 866.633 1941.19 836.435C1856.67 765.974 1371.09 374.606 905.58 0.000196964H912.7C1376.91 373.557 1859.78 762.748 1944.05 833.009C1980.94 863.776 2017.42 897.568 2022.95 942.53C2026.55 971.891 2016.05 1000.88 2006.78 1026.47Z" fill="#0A2D2D"/>
<path d="M2006.78 1026.47C1978.22 1105.31 1920.14 1297.22 1863.99 1482.8C1848.42 1534.23 1832.72 1586.14 1817.52 1636H1812.87C1828.17 1585.75 1844.01 1533.38 1859.72 1481.51C1915.89 1295.87 1973.98 1103.91 2002.58 1024.95C2011.68 999.834 2022 971.366 2018.52 943.076C2013.19 899.733 1977.39 866.633 1941.19 836.435C1856.67 765.974 1371.09 374.606 905.58 0.000196964H912.7C1376.91 373.557 1859.78 762.748 1944.05 833.009C1980.94 863.776 2017.42 897.568 2022.95 942.53C2026.55 971.891 2016.05 1000.88 2006.78 1026.47Z" fill="url(#paint62_linear_2103_2120)" fill-opacity="0.2"/>
<path d="M2006.78 1026.47C1978.22 1105.31 1920.14 1297.22 1863.99 1482.8C1848.42 1534.23 1832.72 1586.14 1817.52 1636H1812.87C1828.17 1585.75 1844.01 1533.38 1859.72 1481.51C1915.89 1295.87 1973.98 1103.91 2002.58 1024.95C2011.68 999.834 2022 971.366 2018.52 943.076C2013.19 899.733 1977.39 866.633 1941.19 836.435C1856.67 765.974 1371.09 374.606 905.58 0.000196964H912.7C1376.91 373.557 1859.78 762.748 1944.05 833.009C1980.94 863.776 2017.42 897.568 2022.95 942.53C2026.55 971.891 2016.05 1000.88 2006.78 1026.47Z" fill="url(#paint63_linear_2103_2120)" fill-opacity="0.2"/>
<path d="M2069.25 1002.04C2040.69 1080.88 1982.62 1272.78 1926.46 1458.35C1908.34 1518.24 1890.01 1578.79 1872.55 1636H1867.88C1885.46 1578.42 1903.93 1517.41 1922.19 1457.05C1978.36 1271.43 2036.45 1079.47 2065.05 1000.52C2074.15 975.406 2084.47 946.938 2080.99 918.637C2075.67 875.293 2039.87 842.194 2003.66 812.007C1920.98 743.063 1454.47 367.017 998.417 0.000196964H1005.53C1460.22 365.924 1924.08 739.838 2006.52 808.57C2043.41 839.337 2079.89 873.128 2085.42 918.09C2089.02 947.451 2078.52 976.455 2069.25 1002.04Z" fill="#0A2D2D"/>
<path d="M2069.25 1002.04C2040.69 1080.88 1982.62 1272.78 1926.46 1458.35C1908.34 1518.24 1890.01 1578.79 1872.55 1636H1867.88C1885.46 1578.42 1903.93 1517.41 1922.19 1457.05C1978.36 1271.43 2036.45 1079.47 2065.05 1000.52C2074.15 975.406 2084.47 946.938 2080.99 918.637C2075.67 875.293 2039.87 842.194 2003.66 812.007C1920.98 743.063 1454.47 367.017 998.417 0.000196964H1005.53C1460.22 365.924 1924.08 739.838 2006.52 808.57C2043.41 839.337 2079.89 873.128 2085.42 918.09C2089.02 947.451 2078.52 976.455 2069.25 1002.04Z" fill="url(#paint64_linear_2103_2120)" fill-opacity="0.2"/>
<path d="M2069.25 1002.04C2040.69 1080.88 1982.62 1272.78 1926.46 1458.35C1908.34 1518.24 1890.01 1578.79 1872.55 1636H1867.88C1885.46 1578.42 1903.93 1517.41 1922.19 1457.05C1978.36 1271.43 2036.45 1079.47 2065.05 1000.52C2074.15 975.406 2084.47 946.938 2080.99 918.637C2075.67 875.293 2039.87 842.194 2003.66 812.007C1920.98 743.063 1454.47 367.017 998.417 0.000196964H1005.53C1460.22 365.924 1924.08 739.838 2006.52 808.57C2043.41 839.337 2079.89 873.128 2085.42 918.09C2089.02 947.451 2078.52 976.455 2069.25 1002.04Z" fill="url(#paint65_linear_2103_2120)" fill-opacity="0.2"/>
<path d="M2131.72 977.604C2103.16 1056.45 2045.09 1248.34 1988.93 1433.91C1968.21 1502.42 1947.22 1571.78 1927.54 1636H1922.88C1942.65 1571.42 1963.79 1501.58 1984.66 1432.62C2040.84 1246.99 2098.92 1055.03 2127.52 976.075C2136.63 950.966 2146.94 922.498 2143.46 894.197C2138.14 850.853 2102.34 817.754 2066.14 787.567C1985.29 720.152 1537.46 359.116 1091.25 0.000196964H1098.37C1543.16 357.978 1988.4 716.927 2068.99 784.13C2105.89 814.897 2142.37 848.689 2147.89 893.651C2151.49 923.012 2140.99 952.015 2131.72 977.604Z" fill="#0A2D2D"/>
<path d="M2131.72 977.604C2103.16 1056.45 2045.09 1248.34 1988.93 1433.91C1968.21 1502.42 1947.22 1571.78 1927.54 1636H1922.88C1942.65 1571.42 1963.79 1501.58 1984.66 1432.62C2040.84 1246.99 2098.92 1055.03 2127.52 976.075C2136.63 950.966 2146.94 922.498 2143.46 894.197C2138.14 850.853 2102.34 817.754 2066.14 787.567C1985.29 720.152 1537.46 359.116 1091.25 0.000196964H1098.37C1543.16 357.978 1988.4 716.927 2068.99 784.13C2105.89 814.897 2142.37 848.689 2147.89 893.651C2151.49 923.012 2140.99 952.015 2131.72 977.604Z" fill="url(#paint66_linear_2103_2120)" fill-opacity="0.2"/>
<path d="M2131.72 977.604C2103.16 1056.45 2045.09 1248.34 1988.93 1433.91C1968.21 1502.42 1947.22 1571.78 1927.54 1636H1922.88C1942.65 1571.42 1963.79 1501.58 1984.66 1432.62C2040.84 1246.99 2098.92 1055.03 2127.52 976.075C2136.63 950.966 2146.94 922.498 2143.46 894.197C2138.14 850.853 2102.34 817.754 2066.14 787.567C1985.29 720.152 1537.46 359.116 1091.25 0.000196964H1098.37C1543.16 357.978 1988.4 716.927 2068.99 784.13C2105.89 814.897 2142.37 848.689 2147.89 893.651C2151.49 923.012 2140.99 952.015 2131.72 977.604Z" fill="url(#paint67_linear_2103_2120)" fill-opacity="0.2"/>
<path d="M2194.19 953.165C2165.63 1032.01 2107.56 1223.91 2051.4 1409.49C2028.03 1486.76 2004.3 1565.14 1982.52 1636H1977.85C1999.74 1564.81 2023.59 1485.96 2047.13 1408.2C2103.31 1222.56 2161.39 1030.6 2190 951.647C2199.1 926.527 2209.41 898.059 2205.93 869.758C2200.61 826.414 2164.81 793.315 2128.61 763.128C2049.6 697.241 1620.06 350.903 1184.09 0.000196964H1191.2C1625.7 349.731 2052.7 694.028 2131.46 759.702C2168.36 790.458 2204.84 824.26 2210.36 869.222C2213.97 898.572 2203.47 927.576 2194.19 953.165Z" fill="#0A2D2D"/>
<path d="M2194.19 953.165C2165.63 1032.01 2107.56 1223.91 2051.4 1409.49C2028.03 1486.76 2004.3 1565.14 1982.52 1636H1977.85C1999.74 1564.81 2023.59 1485.96 2047.13 1408.2C2103.31 1222.56 2161.39 1030.6 2190 951.647C2199.1 926.527 2209.41 898.059 2205.93 869.758C2200.61 826.414 2164.81 793.315 2128.61 763.128C2049.6 697.241 1620.06 350.903 1184.09 0.000196964H1191.2C1625.7 349.731 2052.7 694.028 2131.46 759.702C2168.36 790.458 2204.84 824.26 2210.36 869.222C2213.97 898.572 2203.47 927.576 2194.19 953.165Z" fill="url(#paint68_linear_2103_2120)" fill-opacity="0.2"/>
<path d="M2194.19 953.165C2165.63 1032.01 2107.56 1223.91 2051.4 1409.49C2028.03 1486.76 2004.3 1565.14 1982.52 1636H1977.85C1999.74 1564.81 2023.59 1485.96 2047.13 1408.2C2103.31 1222.56 2161.39 1030.6 2190 951.647C2199.1 926.527 2209.41 898.059 2205.93 869.758C2200.61 826.414 2164.81 793.315 2128.61 763.128C2049.6 697.241 1620.06 350.903 1184.09 0.000196964H1191.2C1625.7 349.731 2052.7 694.028 2131.46 759.702C2168.36 790.458 2204.84 824.26 2210.36 869.222C2213.97 898.572 2203.47 927.576 2194.19 953.165Z" fill="url(#paint69_linear_2103_2120)" fill-opacity="0.2"/>
<path d="M2256.66 928.725C2228.11 1007.58 2170.03 1199.48 2113.86 1385.08C2087.75 1471.35 2061.24 1558.98 2037.45 1636H2032.79C2056.66 1558.69 2083.33 1470.55 2109.59 1383.78C2165.77 1198.13 2223.86 1006.16 2252.47 927.208C2261.57 902.087 2271.88 873.619 2268.4 845.329C2263.08 801.974 2227.28 768.875 2191.08 738.688C2113.9 674.342 1702.29 342.399 1276.92 0.000196964H1284.04C1707.89 341.194 2117 671.117 2193.93 735.262C2230.83 766.018 2267.31 799.821 2272.83 844.783C2276.44 874.132 2265.94 903.136 2256.66 928.725Z" fill="#0A2D2D"/>
<path d="M2256.66 928.725C2228.11 1007.58 2170.03 1199.48 2113.86 1385.08C2087.75 1471.35 2061.24 1558.98 2037.45 1636H2032.79C2056.66 1558.69 2083.33 1470.55 2109.59 1383.78C2165.77 1198.13 2223.86 1006.16 2252.47 927.208C2261.57 902.087 2271.88 873.619 2268.4 845.329C2263.08 801.974 2227.28 768.875 2191.08 738.688C2113.9 674.342 1702.29 342.399 1276.92 0.000196964H1284.04C1707.89 341.194 2117 671.117 2193.93 735.262C2230.83 766.018 2267.31 799.821 2272.83 844.783C2276.44 874.132 2265.94 903.136 2256.66 928.725Z" fill="url(#paint70_linear_2103_2120)" fill-opacity="0.2"/>
<path d="M2256.66 928.725C2228.11 1007.58 2170.03 1199.48 2113.86 1385.08C2087.75 1471.35 2061.24 1558.98 2037.45 1636H2032.79C2056.66 1558.69 2083.33 1470.55 2109.59 1383.78C2165.77 1198.13 2223.86 1006.16 2252.47 927.208C2261.57 902.087 2271.88 873.619 2268.4 845.329C2263.08 801.974 2227.28 768.875 2191.08 738.688C2113.9 674.342 1702.29 342.399 1276.92 0.000196964H1284.04C1707.89 341.194 2117 671.117 2193.93 735.262C2230.83 766.018 2267.31 799.821 2272.83 844.783C2276.44 874.132 2265.94 903.136 2256.66 928.725Z" fill="url(#paint71_linear_2103_2120)" fill-opacity="0.2"/>
<path d="M2319.13 904.286C2290.58 983.14 2232.5 1175.04 2176.34 1360.62C2147.43 1456.17 2118 1553.38 2092.37 1636H2087.7C2113.43 1553.12 2143 1455.38 2172.07 1359.33C2228.25 1173.69 2286.34 981.722 2314.94 902.768C2324.04 877.648 2334.36 849.18 2330.87 820.89C2325.55 777.546 2289.75 744.435 2253.55 714.249C2178.21 651.431 1784.18 333.628 1369.75 0.000196964H1376.86C1789.72 332.367 2181.31 648.206 2256.41 710.823C2293.3 741.579 2329.78 775.381 2335.3 820.343C2338.92 849.693 2328.41 878.697 2319.13 904.286Z" fill="#0A2D2D"/>
<path d="M2319.13 904.286C2290.58 983.14 2232.5 1175.04 2176.34 1360.62C2147.43 1456.17 2118 1553.38 2092.37 1636H2087.7C2113.43 1553.12 2143 1455.38 2172.07 1359.33C2228.25 1173.69 2286.34 981.722 2314.94 902.768C2324.04 877.648 2334.36 849.18 2330.87 820.89C2325.55 777.546 2289.75 744.435 2253.55 714.249C2178.21 651.431 1784.18 333.628 1369.75 0.000196964H1376.86C1789.72 332.367 2181.31 648.206 2256.41 710.823C2293.3 741.579 2329.78 775.381 2335.3 820.343C2338.92 849.693 2328.41 878.697 2319.13 904.286Z" fill="url(#paint72_linear_2103_2120)" fill-opacity="0.2"/>
<path d="M2319.13 904.286C2290.58 983.14 2232.5 1175.04 2176.34 1360.62C2147.43 1456.17 2118 1553.38 2092.37 1636H2087.7C2113.43 1553.12 2143 1455.38 2172.07 1359.33C2228.25 1173.69 2286.34 981.722 2314.94 902.768C2324.04 877.648 2334.36 849.18 2330.87 820.89C2325.55 777.546 2289.75 744.435 2253.55 714.249C2178.21 651.431 1784.18 333.628 1369.75 0.000196964H1376.86C1789.72 332.367 2181.31 648.206 2256.41 710.823C2293.3 741.579 2329.78 775.381 2335.3 820.343C2338.92 849.693 2328.41 878.697 2319.13 904.286Z" fill="url(#paint73_linear_2103_2120)" fill-opacity="0.2"/>
<path d="M2381.61 879.846C2353.05 958.7 2294.97 1150.59 2238.82 1336.17C2207 1441.32 2174.57 1548.49 2147.23 1636H2142.56C2169.97 1548.27 2202.57 1440.55 2234.54 1334.88C2290.72 1149.24 2348.81 957.283 2377.41 878.328C2386.52 853.208 2396.83 824.74 2393.35 796.45C2388.02 753.106 2352.22 720.007 2316.02 689.809C2242.52 628.532 1865.72 324.577 1462.58 0.000196964H1469.7C1871.23 323.283 2245.63 625.307 2318.88 686.383C2355.77 717.15 2392.25 750.942 2397.78 795.904C2401.39 825.253 2390.88 854.257 2381.61 879.846Z" fill="#0A2D2D"/>
<path d="M2381.61 879.846C2353.05 958.7 2294.97 1150.59 2238.82 1336.17C2207 1441.32 2174.57 1548.49 2147.23 1636H2142.56C2169.97 1548.27 2202.57 1440.55 2234.54 1334.88C2290.72 1149.24 2348.81 957.283 2377.41 878.328C2386.52 853.208 2396.83 824.74 2393.35 796.45C2388.02 753.106 2352.22 720.007 2316.02 689.809C2242.52 628.532 1865.72 324.577 1462.58 0.000196964H1469.7C1871.23 323.283 2245.63 625.307 2318.88 686.383C2355.77 717.15 2392.25 750.942 2397.78 795.904C2401.39 825.253 2390.88 854.257 2381.61 879.846Z" fill="url(#paint74_linear_2103_2120)" fill-opacity="0.2"/>
<path d="M2381.61 879.846C2353.05 958.7 2294.97 1150.59 2238.82 1336.17C2207 1441.32 2174.57 1548.49 2147.23 1636H2142.56C2169.97 1548.27 2202.57 1440.55 2234.54 1334.88C2290.72 1149.24 2348.81 957.283 2377.41 878.328C2386.52 853.208 2396.83 824.74 2393.35 796.45C2388.02 753.106 2352.22 720.007 2316.02 689.809C2242.52 628.532 1865.72 324.577 1462.58 0.000196964H1469.7C1871.23 323.283 2245.63 625.307 2318.88 686.383C2355.77 717.15 2392.25 750.942 2397.78 795.904C2401.39 825.253 2390.88 854.257 2381.61 879.846Z" fill="url(#paint75_linear_2103_2120)" fill-opacity="0.2"/>
<path d="M2455.11 750.083V767.358C2447.9 726.28 2413.39 694.475 2378.49 665.382C2306.85 605.633 1946.94 315.26 1555.39 0.0012736H1562.5C1952.41 313.932 2309.95 602.419 2381.35 661.945C2412.15 687.634 2442.67 715.433 2455.11 750.083Z" fill="#0A2D2D"/>
<path d="M2455.11 750.083V767.358C2447.9 726.28 2413.39 694.475 2378.49 665.382C2306.85 605.633 1946.94 315.26 1555.39 0.0012736H1562.5C1952.41 313.932 2309.95 602.419 2381.35 661.945C2412.15 687.634 2442.67 715.433 2455.11 750.083Z" fill="url(#paint76_linear_2103_2120)" fill-opacity="0.2"/>
<path d="M2455.11 750.083V767.358C2447.9 726.28 2413.39 694.475 2378.49 665.382C2306.85 605.633 1946.94 315.26 1555.39 0.0012736H1562.5C1952.41 313.932 2309.95 602.419 2381.35 661.945C2412.15 687.634 2442.67 715.433 2455.11 750.083Z" fill="url(#paint77_linear_2103_2120)" fill-opacity="0.2"/>
<path d="M2455.11 801.137V822.162C2451.96 833.679 2447.9 844.838 2444.08 855.418C2415.52 934.26 2357.44 1126.16 2301.29 1311.73C2266.45 1426.88 2230.86 1544.46 2202.05 1636H2197.36C2226.24 1544.31 2262.01 1426.15 2297.02 1310.45C2353.19 1124.81 2411.28 932.854 2439.88 853.889C2445.85 837.429 2452.35 819.506 2455.11 801.137Z" fill="#0A2D2D"/>
<path d="M2455.11 801.137V822.162C2451.96 833.679 2447.9 844.838 2444.08 855.418C2415.52 934.26 2357.44 1126.16 2301.29 1311.73C2266.45 1426.88 2230.86 1544.46 2202.05 1636H2197.36C2226.24 1544.31 2262.01 1426.15 2297.02 1310.45C2353.19 1124.81 2411.28 932.854 2439.88 853.889C2445.85 837.429 2452.35 819.506 2455.11 801.137Z" fill="url(#paint78_linear_2103_2120)" fill-opacity="0.2"/>
<path d="M2455.11 801.137V822.162C2451.96 833.679 2447.9 844.838 2444.08 855.418C2415.52 934.26 2357.44 1126.16 2301.29 1311.73C2266.45 1426.88 2230.86 1544.46 2202.05 1636H2197.36C2226.24 1544.31 2262.01 1426.15 2297.02 1310.45C2353.19 1124.81 2411.28 932.854 2439.88 853.889C2445.85 837.429 2452.35 819.506 2455.11 801.137Z" fill="url(#paint79_linear_2103_2120)" fill-opacity="0.2"/>
<path d="M2455.11 647.069V652.983C2450.45 648.899 2445.71 644.893 2440.96 640.942C2371.17 582.745 2027.86 305.707 1648.21 0.00111652H1655.34C2033.28 304.357 2374.27 579.531 2443.82 637.516C2447.6 640.663 2451.38 643.844 2455.11 647.069Z" fill="#0A2D2D"/>
<path d="M2455.11 647.069V652.983C2450.45 648.899 2445.71 644.893 2440.96 640.942C2371.17 582.745 2027.86 305.707 1648.21 0.00111652H1655.34C2033.28 304.357 2374.27 579.531 2443.82 637.516C2447.6 640.663 2451.38 643.844 2455.11 647.069Z" fill="url(#paint80_linear_2103_2120)" fill-opacity="0.2"/>
<path d="M2455.11 647.069V652.983C2450.45 648.899 2445.71 644.893 2440.96 640.942C2371.17 582.745 2027.86 305.707 1648.21 0.00111652H1655.34C2033.28 304.357 2374.27 579.531 2443.82 637.516C2447.6 640.663 2451.38 643.844 2455.11 647.069Z" fill="url(#paint81_linear_2103_2120)" fill-opacity="0.2"/>
<path d="M2455.11 973.274V988.239C2427.83 1075.59 2395.49 1182.45 2363.76 1287.31C2325.73 1412.97 2286.83 1541.56 2256.79 1636H2252.09C2282.18 1541.49 2321.28 1412.28 2359.49 1286.01C2392.89 1175.64 2426.96 1063.04 2455.11 973.274Z" fill="#0A2D2D"/>
<path d="M2455.11 973.274V988.239C2427.83 1075.59 2395.49 1182.45 2363.76 1287.31C2325.73 1412.97 2286.83 1541.56 2256.79 1636H2252.09C2282.18 1541.49 2321.28 1412.28 2359.49 1286.01C2392.89 1175.64 2426.96 1063.04 2455.11 973.274Z" fill="url(#paint82_linear_2103_2120)" fill-opacity="0.2"/>
<path d="M2455.11 973.274V988.239C2427.83 1075.59 2395.49 1182.45 2363.76 1287.31C2325.73 1412.97 2286.83 1541.56 2256.79 1636H2252.09C2282.18 1541.49 2321.28 1412.28 2359.49 1286.01C2392.89 1175.64 2426.96 1063.04 2455.11 973.274Z" fill="url(#paint83_linear_2103_2120)" fill-opacity="0.2"/>
<path d="M2455.11 571.038V576.796C2334.93 478.692 2052.51 250.835 1741.04 0.000377912H1748.16C2055.49 247.521 2333.9 472.141 2455.11 571.038Z" fill="#0A2D2D"/>
<path d="M2455.11 571.038V576.796C2334.93 478.692 2052.51 250.835 1741.04 0.000377912H1748.16C2055.49 247.521 2333.9 472.141 2455.11 571.038Z" fill="url(#paint84_linear_2103_2120)" fill-opacity="0.2"/>
<path d="M2455.11 571.038V576.796C2334.93 478.692 2052.51 250.835 1741.04 0.000377912H1748.16C2055.49 247.521 2333.9 472.141 2455.11 571.038Z" fill="url(#paint85_linear_2103_2120)" fill-opacity="0.2"/>
<path d="M2455.11 1152.13V1167.51C2445.54 1199.08 2435.85 1231.06 2426.23 1262.87C2384.81 1399.76 2342.35 1540.08 2311.43 1636H2306.74C2337.67 1540.12 2380.34 1399.11 2421.96 1261.57C2433.02 1225.04 2444.14 1188.24 2455.11 1152.13Z" fill="#0A2D2D"/>
<path d="M2455.11 1152.13V1167.51C2445.54 1199.08 2435.85 1231.06 2426.23 1262.87C2384.81 1399.76 2342.35 1540.08 2311.43 1636H2306.74C2337.67 1540.12 2380.34 1399.11 2421.96 1261.57C2433.02 1225.04 2444.14 1188.24 2455.11 1152.13Z" fill="url(#paint86_linear_2103_2120)" fill-opacity="0.2"/>
<path d="M2455.11 1152.13V1167.51C2445.54 1199.08 2435.85 1231.06 2426.23 1262.87C2384.81 1399.76 2342.35 1540.08 2311.43 1636H2306.74C2337.67 1540.12 2380.34 1399.11 2421.96 1261.57C2433.02 1225.04 2444.14 1188.24 2455.11 1152.13Z" fill="url(#paint87_linear_2103_2120)" fill-opacity="0.2"/>
<path d="M2455.11 1333.92V1349.31C2421.51 1459.97 2389.49 1564.26 2365.96 1636H2361.26C2385.81 1561.29 2419.75 1450.49 2455.11 1333.92Z" fill="#0A2D2D"/>
<path d="M2455.11 1333.92V1349.31C2421.51 1459.97 2389.49 1564.26 2365.96 1636H2361.26C2385.81 1561.29 2419.75 1450.49 2455.11 1333.92Z" fill="url(#paint88_linear_2103_2120)" fill-opacity="0.2"/>
<path d="M2455.11 1333.92V1349.31C2421.51 1459.97 2389.49 1564.26 2365.96 1636H2361.26C2385.81 1561.29 2419.75 1450.49 2455.11 1333.92Z" fill="url(#paint89_linear_2103_2120)" fill-opacity="0.2"/>
<path d="M2455.11 495.777V501.535C2319.83 391.713 2088.12 204.79 1833.86 -5.83114e-05H1840.97C2091.77 202.011 2320.19 386.279 2455.11 495.777Z" fill="#0A2D2D"/>
<path d="M2455.11 495.777V501.535C2319.83 391.713 2088.12 204.79 1833.86 -5.83114e-05H1840.97C2091.77 202.011 2320.19 386.279 2455.11 495.777Z" fill="url(#paint90_linear_2103_2120)" fill-opacity="0.2"/>
<path d="M2455.11 495.777V501.535C2319.83 391.713 2088.12 204.79 1833.86 -5.83114e-05H1840.97C2091.77 202.011 2320.19 386.279 2455.11 495.777Z" fill="url(#paint91_linear_2103_2120)" fill-opacity="0.2"/>
<path d="M2455.11 1513.15V1528.1C2441.99 1569.93 2430.17 1606.76 2420.32 1636H2415.6C2426.59 1603.47 2440.07 1561.31 2455.11 1513.15Z" fill="#0A2D2D"/>
<path d="M2455.11 1513.15V1528.1C2441.99 1569.93 2430.17 1606.76 2420.32 1636H2415.6C2426.59 1603.47 2440.07 1561.31 2455.11 1513.15Z" fill="url(#paint92_linear_2103_2120)" fill-opacity="0.2"/>
<path d="M2455.11 1513.15V1528.1C2441.99 1569.93 2430.17 1606.76 2420.32 1636H2415.6C2426.59 1603.47 2440.07 1561.31 2455.11 1513.15Z" fill="url(#paint93_linear_2103_2120)" fill-opacity="0.2"/>
<path d="M2455.11 420.706V426.442C2323.22 319.645 2133.52 166.624 1926.67 0.000256026H1933.77C2137.48 164.08 2324.26 314.746 2455.11 420.706Z" fill="#0A2D2D"/>
<path d="M2455.11 420.706V426.442C2323.22 319.645 2133.52 166.624 1926.67 0.000256026H1933.77C2137.48 164.08 2324.26 314.746 2455.11 420.706Z" fill="url(#paint94_linear_2103_2120)" fill-opacity="0.2"/>
<path d="M2455.11 420.706V426.442C2323.22 319.645 2133.52 166.624 1926.67 0.000256026H1933.77C2137.48 164.08 2324.26 314.746 2455.11 420.706Z" fill="url(#paint95_linear_2103_2120)" fill-opacity="0.2"/>
<path d="M2455.11 345.725V351.45C2336.23 255.321 2184.01 132.566 2019.49 0.000619277H2026.59C2188.18 130.177 2337.68 250.768 2455.11 345.725Z" fill="#0A2D2D"/>
<path d="M2455.11 345.725V351.45C2336.23 255.321 2184.01 132.566 2019.49 0.000619277H2026.59C2188.18 130.177 2337.68 250.768 2455.11 345.725Z" fill="url(#paint96_linear_2103_2120)" fill-opacity="0.2"/>
<path d="M2455.11 345.725V351.45C2336.23 255.321 2184.01 132.566 2019.49 0.000619277H2026.59C2188.18 130.177 2337.68 250.768 2455.11 345.725Z" fill="url(#paint97_linear_2103_2120)" fill-opacity="0.2"/>
<path d="M2455.11 270.799V276.535C2355.34 195.929 2237.85 101.173 2112.27 3.88324e-05H2119.38C2242.16 98.9188 2357.08 191.599 2455.11 270.799Z" fill="#0A2D2D"/>
<path d="M2455.11 270.799V276.535C2355.34 195.929 2237.85 101.173 2112.27 3.88324e-05H2119.38C2242.16 98.9188 2357.08 191.599 2455.11 270.799Z" fill="url(#paint98_linear_2103_2120)" fill-opacity="0.2"/>
<path d="M2455.11 270.799V276.535C2355.34 195.929 2237.85 101.173 2112.27 3.88324e-05H2119.38C2242.16 98.9188 2357.08 191.599 2455.11 270.799Z" fill="url(#paint99_linear_2103_2120)" fill-opacity="0.2"/>
<path d="M2455.11 195.917V201.653C2378.7 139.963 2294.17 71.8001 2205.08 -0.000818983H2212.18C2298.61 69.6463 2380.67 135.823 2455.11 195.917Z" fill="#0A2D2D"/>
<path d="M2455.11 195.917V201.653C2378.7 139.963 2294.17 71.8001 2205.08 -0.000818983H2212.18C2298.61 69.6463 2380.67 135.823 2455.11 195.917Z" fill="url(#paint100_linear_2103_2120)" fill-opacity="0.2"/>
<path d="M2455.11 195.917V201.653C2378.7 139.963 2294.17 71.8001 2205.08 -0.000818983H2212.18C2298.61 69.6463 2380.67 135.823 2455.11 195.917Z" fill="url(#paint101_linear_2103_2120)" fill-opacity="0.2"/>
<path d="M2455.11 121.06V126.796C2405.19 86.5097 2352.49 44.0251 2297.88 0.000404715H2304.98C2357.04 41.9605 2407.33 82.5145 2455.11 121.06Z" fill="#0A2D2D"/>
<path d="M2455.11 121.06V126.796C2405.19 86.5097 2352.49 44.0251 2297.88 0.000404715H2304.98C2357.04 41.9605 2407.33 82.5145 2455.11 121.06Z" fill="url(#paint102_linear_2103_2120)" fill-opacity="0.2"/>
<path d="M2455.11 121.06V126.796C2405.19 86.5097 2352.49 44.0251 2297.88 0.000404715H2304.98C2357.04 41.9605 2407.33 82.5145 2455.11 121.06Z" fill="url(#paint103_linear_2103_2120)" fill-opacity="0.2"/>
<path d="M2455.11 46.2346V51.9707C2434.01 34.9411 2412.51 17.6102 2390.66 0.000377544H2397.76C2417.17 15.635 2436.3 31.0687 2455.11 46.2346Z" fill="#0A2D2D"/>
<path d="M2455.11 46.2346V51.9707C2434.01 34.9411 2412.51 17.6102 2390.66 0.000377544H2397.76C2417.17 15.635 2436.3 31.0687 2455.11 46.2346Z" fill="url(#paint104_linear_2103_2120)" fill-opacity="0.2"/>
<path d="M2455.11 46.2346V51.9707C2434.01 34.9411 2412.51 17.6102 2390.66 0.000377544H2397.76C2417.17 15.635 2436.3 31.0687 2455.11 46.2346Z" fill="url(#paint105_linear_2103_2120)" fill-opacity="0.2"/>
</g>
<defs>
<linearGradient id="paint0_linear_2103_2120" x1="40.5333" y1="1608.88" x2="43.9163" y2="1625.47" gradientUnits="userSpaceOnUse">
<stop stop-opacity="0"/>
<stop offset="0.53" stop-color="#FFF156"/>
<stop offset="1" stop-opacity="0"/>
</linearGradient>
<linearGradient id="paint1_linear_2103_2120" x1="11.2749" y1="1591.84" x2="14.5448" y2="1587.89" gradientUnits="userSpaceOnUse">
<stop stop-opacity="0"/>
<stop offset="0.82" stop-color="#208007"/>
</linearGradient>
<linearGradient id="paint2_linear_2103_2120" x1="99.0592" y1="1569.15" x2="107.464" y2="1610.01" gradientUnits="userSpaceOnUse">
<stop stop-opacity="0"/>
<stop offset="0.53" stop-color="#FFF156"/>
<stop offset="1" stop-opacity="0"/>
</linearGradient>
<linearGradient id="paint3_linear_2103_2120" x1="27.5548" y1="1527.16" x2="35.6276" y2="1517.48" gradientUnits="userSpaceOnUse">
<stop stop-opacity="0"/>
<stop offset="0.82" stop-color="#208007"/>
</linearGradient>
<linearGradient id="paint4_linear_2103_2120" x1="152.539" y1="1529.62" x2="166.323" y2="1594.47" gradientUnits="userSpaceOnUse">
<stop stop-opacity="0"/>
<stop offset="0.53" stop-color="#FFF156"/>
<stop offset="1" stop-opacity="0"/>
</linearGradient>
<linearGradient id="paint5_linear_2103_2120" x1="42.431" y1="1462.8" x2="55.3466" y2="1447.82" gradientUnits="userSpaceOnUse">
<stop stop-opacity="0"/>
<stop offset="0.82" stop-color="#208007"/>
</linearGradient>
<linearGradient id="paint6_linear_2103_2120" x1="201.112" y1="1490.16" x2="220.692" y2="1578.75" gradientUnits="userSpaceOnUse">
<stop stop-opacity="0"/>
<stop offset="0.53" stop-color="#FFF156"/>
<stop offset="1" stop-opacity="0"/>
</linearGradient>
<linearGradient id="paint7_linear_2103_2120" x1="55.9422" y1="1398.55" x2="73.7374" y2="1378.71" gradientUnits="userSpaceOnUse">
<stop stop-opacity="0"/>
<stop offset="0.82" stop-color="#208007"/>
</linearGradient>
<linearGradient id="paint8_linear_2103_2120" x1="246.93" y1="1450.75" x2="272.578" y2="1562.91" gradientUnits="userSpaceOnUse">
<stop stop-opacity="0"/>
<stop offset="0.53" stop-color="#FFF156"/>
<stop offset="1" stop-opacity="0"/>
</linearGradient>
<linearGradient id="paint9_linear_2103_2120" x1="68.6874" y1="1334.39" x2="91.3624" y2="1309.94" gradientUnits="userSpaceOnUse">
<stop stop-opacity="0"/>
<stop offset="0.82" stop-color="#208007"/>
</linearGradient>
<linearGradient id="paint10_linear_2103_2120" x1="292.712" y1="1411.36" x2="324.453" y2="1547.06" gradientUnits="userSpaceOnUse">
<stop stop-opacity="0"/>
<stop offset="0.53" stop-color="#FFF156"/>
<stop offset="1" stop-opacity="0"/>
</linearGradient>
<linearGradient id="paint11_linear_2103_2120" x1="81.4222" y1="1270.25" x2="108.958" y2="1241.23" gradientUnits="userSpaceOnUse">
<stop stop-opacity="0"/>
<stop offset="0.82" stop-color="#208007"/>
</linearGradient>
<linearGradient id="paint12_linear_2103_2120" x1="338.497" y1="1371.99" x2="376.345" y2="1531.2" gradientUnits="userSpaceOnUse">
<stop stop-opacity="0"/>
<stop offset="0.53" stop-color="#FFF156"/>
<stop offset="1" stop-opacity="0"/>
</linearGradient>
<linearGradient id="paint13_linear_2103_2120" x1="94.1579" y1="1206.15" x2="126.543" y2="1172.57" gradientUnits="userSpaceOnUse">
<stop stop-opacity="0"/>
<stop offset="0.82" stop-color="#208007"/>
</linearGradient>
<linearGradient id="paint14_linear_2103_2120" x1="384.281" y1="1332.65" x2="428.24" y2="1515.34" gradientUnits="userSpaceOnUse">
<stop stop-opacity="0"/>
<stop offset="0.53" stop-color="#FFF156"/>
<stop offset="1" stop-opacity="0"/>
</linearGradient>
<linearGradient id="paint15_linear_2103_2120" x1="106.893" y1="1142.09" x2="144.119" y2="1103.95" gradientUnits="userSpaceOnUse">
<stop stop-opacity="0"/>
<stop offset="0.82" stop-color="#208007"/>
</linearGradient>
<linearGradient id="paint16_linear_2103_2120" x1="430.064" y1="1293.31" x2="480.14" y2="1499.49" gradientUnits="userSpaceOnUse">
<stop stop-opacity="0"/>
<stop offset="0.53" stop-color="#FFF156"/>
<stop offset="1" stop-opacity="0"/>
</linearGradient>
<linearGradient id="paint17_linear_2103_2120" x1="119.629" y1="1078.04" x2="161.689" y2="1035.35" gradientUnits="userSpaceOnUse">
<stop stop-opacity="0"/>
<stop offset="0.82" stop-color="#208007"/>
</linearGradient>
<linearGradient id="paint18_linear_2103_2120" x1="475.848" y1="1253.98" x2="532.042" y2="1483.63" gradientUnits="userSpaceOnUse">
<stop stop-opacity="0"/>
<stop offset="0.53" stop-color="#FFF156"/>
<stop offset="1" stop-opacity="0"/>
</linearGradient>
<linearGradient id="paint19_linear_2103_2120" x1="132.364" y1="1014.01" x2="179.256" y2="966.767" gradientUnits="userSpaceOnUse">
<stop stop-opacity="0"/>
<stop offset="0.82" stop-color="#208007"/>
</linearGradient>
<linearGradient id="paint20_linear_2103_2120" x1="521.632" y1="1214.66" x2="583.946" y2="1467.77" gradientUnits="userSpaceOnUse">
<stop stop-opacity="0"/>
<stop offset="0.53" stop-color="#FFF156"/>
<stop offset="1" stop-opacity="0"/>
</linearGradient>
<linearGradient id="paint21_linear_2103_2120" x1="145.1" y1="949.994" x2="196.819" y2="898.204" gradientUnits="userSpaceOnUse">
<stop stop-opacity="0"/>
<stop offset="0.82" stop-color="#208007"/>
</linearGradient>
<linearGradient id="paint22_linear_2103_2120" x1="567.416" y1="1175.35" x2="635.852" y2="1451.91" gradientUnits="userSpaceOnUse">
<stop stop-opacity="0"/>
<stop offset="0.53" stop-color="#FFF156"/>
<stop offset="1" stop-opacity="0"/>
</linearGradient>
<linearGradient id="paint23_linear_2103_2120" x1="157.835" y1="885.978" x2="214.38" y2="829.643" gradientUnits="userSpaceOnUse">
<stop stop-opacity="0"/>
<stop offset="0.82" stop-color="#208007"/>
</linearGradient>
<linearGradient id="paint24_linear_2103_2120" x1="613.202" y1="1136.05" x2="687.757" y2="1436.05" gradientUnits="userSpaceOnUse">
<stop stop-opacity="0"/>
<stop offset="0.53" stop-color="#FFF156"/>
<stop offset="1" stop-opacity="0"/>
</linearGradient>
<linearGradient id="paint25_linear_2103_2120" x1="170.571" y1="821.99" x2="231.939" y2="761.111" gradientUnits="userSpaceOnUse">
<stop stop-opacity="0"/>
<stop offset="0.82" stop-color="#208007"/>
</linearGradient>
<linearGradient id="paint26_linear_2103_2120" x1="658.986" y1="1096.74" x2="739.664" y2="1420.2" gradientUnits="userSpaceOnUse">
<stop stop-opacity="0"/>
<stop offset="0.53" stop-color="#FFF156"/>
<stop offset="1" stop-opacity="0"/>
</linearGradient>
<linearGradient id="paint27_linear_2103_2120" x1="183.307" y1="757.994" x2="249.497" y2="692.571" gradientUnits="userSpaceOnUse">
<stop stop-opacity="0"/>
<stop offset="0.82" stop-color="#208007"/>
</linearGradient>
<linearGradient id="paint28_linear_2103_2120" x1="704.77" y1="1057.45" x2="791.567" y2="1404.34" gradientUnits="userSpaceOnUse">
<stop stop-opacity="0"/>
<stop offset="0.53" stop-color="#FFF156"/>
<stop offset="1" stop-opacity="0"/>
</linearGradient>
<linearGradient id="paint29_linear_2103_2120" x1="196.042" y1="694.025" x2="267.052" y2="624.061" gradientUnits="userSpaceOnUse">
<stop stop-opacity="0"/>
<stop offset="0.82" stop-color="#208007"/>
</linearGradient>
<linearGradient id="paint30_linear_2103_2120" x1="750.554" y1="1018.16" x2="843.471" y2="1388.49" gradientUnits="userSpaceOnUse">
<stop stop-opacity="0"/>
<stop offset="0.53" stop-color="#FFF156"/>
<stop offset="1" stop-opacity="0"/>
</linearGradient>
<linearGradient id="paint31_linear_2103_2120" x1="208.778" y1="630.057" x2="284.606" y2="555.551" gradientUnits="userSpaceOnUse">
<stop stop-opacity="0"/>
<stop offset="0.82" stop-color="#208007"/>
</linearGradient>
<linearGradient id="paint32_linear_2103_2120" x1="796.337" y1="978.882" x2="895.375" y2="1372.64" gradientUnits="userSpaceOnUse">
<stop stop-opacity="0"/>
<stop offset="0.53" stop-color="#FFF156"/>
<stop offset="1" stop-opacity="0"/>
</linearGradient>
<linearGradient id="paint33_linear_2103_2120" x1="221.513" y1="566.098" x2="302.159" y2="487.051" gradientUnits="userSpaceOnUse">
<stop stop-opacity="0"/>
<stop offset="0.82" stop-color="#208007"/>
</linearGradient>
<linearGradient id="paint34_linear_2103_2120" x1="842.121" y1="939.599" x2="947.279" y2="1356.79" gradientUnits="userSpaceOnUse">
<stop stop-opacity="0"/>
<stop offset="0.53" stop-color="#FFF156"/>
<stop offset="1" stop-opacity="0"/>
</linearGradient>
<linearGradient id="paint35_linear_2103_2120" x1="234.249" y1="502.14" x2="319.711" y2="418.551" gradientUnits="userSpaceOnUse">
<stop stop-opacity="0"/>
<stop offset="0.82" stop-color="#208007"/>
</linearGradient>
<linearGradient id="paint36_linear_2103_2120" x1="887.91" y1="900.323" x2="999.187" y2="1340.94" gradientUnits="userSpaceOnUse">
<stop stop-opacity="0"/>
<stop offset="0.53" stop-color="#FFF156"/>
<stop offset="1" stop-opacity="0"/>
</linearGradient>
<linearGradient id="paint37_linear_2103_2120" x1="246.985" y1="438.191" x2="337.264" y2="350.061" gradientUnits="userSpaceOnUse">
<stop stop-opacity="0"/>
<stop offset="0.82" stop-color="#208007"/>
</linearGradient>
<linearGradient id="paint38_linear_2103_2120" x1="933.694" y1="861.052" x2="1051.09" y2="1325.1" gradientUnits="userSpaceOnUse">
<stop stop-opacity="0"/>
<stop offset="0.53" stop-color="#FFF156"/>
<stop offset="1" stop-opacity="0"/>
</linearGradient>
<linearGradient id="paint39_linear_2103_2120" x1="259.721" y1="374.251" x2="354.815" y2="281.581" gradientUnits="userSpaceOnUse">
<stop stop-opacity="0"/>
<stop offset="0.82" stop-color="#208007"/>
</linearGradient>
<linearGradient id="paint40_linear_2103_2120" x1="979.478" y1="821.781" x2="1102.99" y2="1309.25" gradientUnits="userSpaceOnUse">
<stop stop-opacity="0"/>
<stop offset="0.53" stop-color="#FFF156"/>
<stop offset="1" stop-opacity="0"/>
</linearGradient>
<linearGradient id="paint41_linear_2103_2120" x1="272.456" y1="310.312" x2="372.365" y2="213.102" gradientUnits="userSpaceOnUse">
<stop stop-opacity="0"/>
<stop offset="0.82" stop-color="#208007"/>
</linearGradient>
<linearGradient id="paint42_linear_2103_2120" x1="1025.26" y1="782.516" x2="1154.89" y2="1293.41" gradientUnits="userSpaceOnUse">
<stop stop-opacity="0"/>
<stop offset="0.53" stop-color="#FFF156"/>
<stop offset="1" stop-opacity="0"/>
</linearGradient>
<linearGradient id="paint43_linear_2103_2120" x1="285.192" y1="246.382" x2="389.914" y2="144.632" gradientUnits="userSpaceOnUse">
<stop stop-opacity="0"/>
<stop offset="0.82" stop-color="#208007"/>
</linearGradient>
<linearGradient id="paint44_linear_2103_2120" x1="1089.72" y1="775.833" x2="1221.89" y2="1289.89" gradientUnits="userSpaceOnUse">
<stop stop-opacity="0"/>
<stop offset="0.53" stop-color="#FFF156"/>
<stop offset="1" stop-opacity="0"/>
</linearGradient>
<linearGradient id="paint45_linear_2103_2120" x1="353.598" y1="235.501" x2="459.092" y2="134.34" gradientUnits="userSpaceOnUse">
<stop stop-opacity="0"/>
<stop offset="0.82" stop-color="#208007"/>
</linearGradient>
<linearGradient id="paint46_linear_2103_2120" x1="1160.31" y1="775.833" x2="1295.05" y2="1288.46" gradientUnits="userSpaceOnUse">
<stop stop-opacity="0"/>
<stop offset="0.53" stop-color="#FFF156"/>
<stop offset="1" stop-opacity="0"/>
</linearGradient>
<linearGradient id="paint47_linear_2103_2120" x1="440.262" y1="235.501" x2="545.632" y2="136.665" gradientUnits="userSpaceOnUse">
<stop stop-opacity="0"/>
<stop offset="0.82" stop-color="#208007"/>
</linearGradient>
<linearGradient id="paint48_linear_2103_2120" x1="1230.9" y1="775.833" x2="1368.3" y2="1286.93" gradientUnits="userSpaceOnUse">
<stop stop-opacity="0"/>
<stop offset="0.53" stop-color="#FFF156"/>
<stop offset="1" stop-opacity="0"/>
</linearGradient>
<linearGradient id="paint49_linear_2103_2120" x1="526.927" y1="235.501" x2="632.119" y2="139.035" gradientUnits="userSpaceOnUse">
<stop stop-opacity="0"/>
<stop offset="0.82" stop-color="#208007"/>
</linearGradient>
<linearGradient id="paint50_linear_2103_2120" x1="1301.49" y1="775.833" x2="1441.65" y2="1285.31" gradientUnits="userSpaceOnUse">
<stop stop-opacity="0"/>
<stop offset="0.53" stop-color="#FFF156"/>
<stop offset="1" stop-opacity="0"/>
</linearGradient>
<linearGradient id="paint51_linear_2103_2120" x1="613.574" y1="235.501" x2="718.528" y2="141.449" gradientUnits="userSpaceOnUse">
<stop stop-opacity="0"/>
<stop offset="0.82" stop-color="#208007"/>
</linearGradient>
<linearGradient id="paint52_linear_2103_2120" x1="1372.07" y1="775.833" x2="1515.1" y2="1283.58" gradientUnits="userSpaceOnUse">
<stop stop-opacity="0"/>
<stop offset="0.53" stop-color="#FFF156"/>
<stop offset="1" stop-opacity="0"/>
</linearGradient>
<linearGradient id="paint53_linear_2103_2120" x1="700.238" y1="235.501" x2="804.893" y2="143.909" gradientUnits="userSpaceOnUse">
<stop stop-opacity="0"/>
<stop offset="0.82" stop-color="#208007"/>
</linearGradient>
<linearGradient id="paint54_linear_2103_2120" x1="1442.66" y1="775.833" x2="1588.67" y2="1281.74" gradientUnits="userSpaceOnUse">
<stop stop-opacity="0"/>
<stop offset="0.53" stop-color="#FFF156"/>
<stop offset="1" stop-opacity="0"/>
</linearGradient>
<linearGradient id="paint55_linear_2103_2120" x1="786.902" y1="235.501" x2="891.191" y2="146.413" gradientUnits="userSpaceOnUse">
<stop stop-opacity="0"/>
<stop offset="0.82" stop-color="#208007"/>
</linearGradient>
<linearGradient id="paint56_linear_2103_2120" x1="1513.25" y1="775.833" x2="1662.34" y2="1279.76" gradientUnits="userSpaceOnUse">
<stop stop-opacity="0"/>
<stop offset="0.53" stop-color="#FFF156"/>
<stop offset="1" stop-opacity="0"/>
</linearGradient>
<linearGradient id="paint57_linear_2103_2120" x1="873.557" y1="235.501" x2="977.412" y2="148.958" gradientUnits="userSpaceOnUse">
<stop stop-opacity="0"/>
<stop offset="0.82" stop-color="#208007"/>
</linearGradient>
<linearGradient id="paint58_linear_2103_2120" x1="1583.83" y1="775.833" x2="1736.12" y2="1277.66" gradientUnits="userSpaceOnUse">
<stop stop-opacity="0"/>
<stop offset="0.53" stop-color="#FFF156"/>
<stop offset="1" stop-opacity="0"/>
</linearGradient>
<linearGradient id="paint59_linear_2103_2120" x1="960.213" y1="235.501" x2="1063.56" y2="151.545" gradientUnits="userSpaceOnUse">
<stop stop-opacity="0"/>
<stop offset="0.82" stop-color="#208007"/>
</linearGradient>
<linearGradient id="paint60_linear_2103_2120" x1="1654.42" y1="775.833" x2="1810.03" y2="1275.4" gradientUnits="userSpaceOnUse">
<stop stop-opacity="0"/>
<stop offset="0.53" stop-color="#FFF156"/>
<stop offset="1" stop-opacity="0"/>
</linearGradient>
<linearGradient id="paint61_linear_2103_2120" x1="1046.86" y1="235.501" x2="1149.62" y2="154.17" gradientUnits="userSpaceOnUse">
<stop stop-opacity="0"/>
<stop offset="0.82" stop-color="#208007"/>
</linearGradient>
<linearGradient id="paint62_linear_2103_2120" x1="1725" y1="775.833" x2="1884.07" y2="1272.98" gradientUnits="userSpaceOnUse">
<stop stop-opacity="0"/>
<stop offset="0.53" stop-color="#FFF156"/>
<stop offset="1" stop-opacity="0"/>
</linearGradient>
<linearGradient id="paint63_linear_2103_2120" x1="1133.51" y1="235.501" x2="1235.61" y2="156.834" gradientUnits="userSpaceOnUse">
<stop stop-opacity="0"/>
<stop offset="0.82" stop-color="#208007"/>
</linearGradient>
<linearGradient id="paint64_linear_2103_2120" x1="1795.59" y1="775.833" x2="1958.24" y2="1270.38" gradientUnits="userSpaceOnUse">
<stop stop-opacity="0"/>
<stop offset="0.53" stop-color="#FFF156"/>
<stop offset="1" stop-opacity="0"/>
</linearGradient>
<linearGradient id="paint65_linear_2103_2120" x1="1220.16" y1="235.501" x2="1321.51" y2="159.532" gradientUnits="userSpaceOnUse">
<stop stop-opacity="0"/>
<stop offset="0.82" stop-color="#208007"/>
</linearGradient>
<linearGradient id="paint66_linear_2103_2120" x1="1866.17" y1="775.833" x2="2032.55" y2="1267.58" gradientUnits="userSpaceOnUse">
<stop stop-opacity="0"/>
<stop offset="0.53" stop-color="#FFF156"/>
<stop offset="1" stop-opacity="0"/>
</linearGradient>
<linearGradient id="paint67_linear_2103_2120" x1="1306.81" y1="235.501" x2="1407.32" y2="162.264" gradientUnits="userSpaceOnUse">
<stop stop-opacity="0"/>
<stop offset="0.82" stop-color="#208007"/>
</linearGradient>
<linearGradient id="paint68_linear_2103_2120" x1="1936.75" y1="775.833" x2="2107" y2="1264.57" gradientUnits="userSpaceOnUse">
<stop stop-opacity="0"/>
<stop offset="0.53" stop-color="#FFF156"/>
<stop offset="1" stop-opacity="0"/>
</linearGradient>
<linearGradient id="paint69_linear_2103_2120" x1="1393.45" y1="235.501" x2="1493.03" y2="165.026" gradientUnits="userSpaceOnUse">
<stop stop-opacity="0"/>
<stop offset="0.82" stop-color="#208007"/>
</linearGradient>
<linearGradient id="paint70_linear_2103_2120" x1="2007.33" y1="775.833" x2="2181.6" y2="1261.32" gradientUnits="userSpaceOnUse">
<stop stop-opacity="0"/>
<stop offset="0.53" stop-color="#FFF156"/>
<stop offset="1" stop-opacity="0"/>
</linearGradient>
<linearGradient id="paint71_linear_2103_2120" x1="1480.09" y1="235.501" x2="1578.64" y2="167.815" gradientUnits="userSpaceOnUse">
<stop stop-opacity="0"/>
<stop offset="0.82" stop-color="#208007"/>
</linearGradient>
<linearGradient id="paint72_linear_2103_2120" x1="2077.92" y1="775.833" x2="2256.36" y2="1257.81" gradientUnits="userSpaceOnUse">
<stop stop-opacity="0"/>
<stop offset="0.53" stop-color="#FFF156"/>
<stop offset="1" stop-opacity="0"/>
</linearGradient>
<linearGradient id="paint73_linear_2103_2120" x1="1566.74" y1="235.501" x2="1664.16" y2="170.629" gradientUnits="userSpaceOnUse">
<stop stop-opacity="0"/>
<stop offset="0.82" stop-color="#208007"/>
</linearGradient>
<linearGradient id="paint74_linear_2103_2120" x1="2148.5" y1="775.833" x2="2331.27" y2="1254.01" gradientUnits="userSpaceOnUse">
<stop stop-opacity="0"/>
<stop offset="0.53" stop-color="#FFF156"/>
<stop offset="1" stop-opacity="0"/>
</linearGradient>
<linearGradient id="paint75_linear_2103_2120" x1="1653.38" y1="235.501" x2="1749.56" y2="173.462" gradientUnits="userSpaceOnUse">
<stop stop-opacity="0"/>
<stop offset="0.82" stop-color="#208007"/>
</linearGradient>
<linearGradient id="paint76_linear_2103_2120" x1="2214.78" y1="363.902" x2="2261.11" y2="612.316" gradientUnits="userSpaceOnUse">
<stop stop-opacity="0"/>
<stop offset="0.53" stop-color="#FFF156"/>
<stop offset="1" stop-opacity="0"/>
</linearGradient>
<linearGradient id="paint77_linear_2103_2120" x1="1738.81" y1="110.462" x2="1786.47" y2="47.4644" gradientUnits="userSpaceOnUse">
<stop stop-opacity="0"/>
<stop offset="0.82" stop-color="#208007"/>
</linearGradient>
<linearGradient id="paint78_linear_2103_2120" x1="2386.26" y1="1197.05" x2="2518.17" y2="1383.29" gradientUnits="userSpaceOnUse">
<stop stop-opacity="0"/>
<stop offset="0.53" stop-color="#FFF156"/>
<stop offset="1" stop-opacity="0"/>
</linearGradient>
<linearGradient id="paint79_linear_2103_2120" x1="2249.91" y1="921.315" x2="2283.36" y2="909.67" gradientUnits="userSpaceOnUse">
<stop stop-opacity="0"/>
<stop offset="0.82" stop-color="#208007"/>
</linearGradient>
<linearGradient id="paint80_linear_2103_2120" x1="2239.57" y1="309.662" x2="2277.1" y2="521.761" gradientUnits="userSpaceOnUse">
<stop stop-opacity="0"/>
<stop offset="0.53" stop-color="#FFF156"/>
<stop offset="1" stop-opacity="0"/>
</linearGradient>
<linearGradient id="paint81_linear_2103_2120" x1="1812.7" y1="93.9972" x2="1852.63" y2="38.3708" gradientUnits="userSpaceOnUse">
<stop stop-opacity="0"/>
<stop offset="0.82" stop-color="#208007"/>
</linearGradient>
<linearGradient id="paint82_linear_2103_2120" x1="2400.88" y1="1287.56" x2="2505.86" y2="1434.63" gradientUnits="userSpaceOnUse">
<stop stop-opacity="0"/>
<stop offset="0.53" stop-color="#FFF156"/>
<stop offset="1" stop-opacity="0"/>
</linearGradient>
<linearGradient id="paint83_linear_2103_2120" x1="2293.48" y1="1068.67" x2="2319.87" y2="1059.56" gradientUnits="userSpaceOnUse">
<stop stop-opacity="0"/>
<stop offset="0.82" stop-color="#208007"/>
</linearGradient>
<linearGradient id="paint84_linear_2103_2120" x1="2264.37" y1="273.532" x2="2297.46" y2="460.905" gradientUnits="userSpaceOnUse">
<stop stop-opacity="0"/>
<stop offset="0.53" stop-color="#FFF156"/>
<stop offset="1" stop-opacity="0"/>
</linearGradient>
<linearGradient id="paint85_linear_2103_2120" x1="1886.61" y1="83.0295" x2="1921.86" y2="33.832" gradientUnits="userSpaceOnUse">
<stop stop-opacity="0"/>
<stop offset="0.82" stop-color="#208007"/>
</linearGradient>
<linearGradient id="paint86_linear_2103_2120" x1="2415.48" y1="1381.59" x2="2492.1" y2="1489.04" gradientUnits="userSpaceOnUse">
<stop stop-opacity="0"/>
<stop offset="0.53" stop-color="#FFF156"/>
<stop offset="1" stop-opacity="0"/>
</linearGradient>
<linearGradient id="paint87_linear_2103_2120" x1="2336.98" y1="1221.78" x2="2356.27" y2="1215.11" gradientUnits="userSpaceOnUse">
<stop stop-opacity="0"/>
<stop offset="0.82" stop-color="#208007"/>
</linearGradient>
<linearGradient id="paint88_linear_2103_2120" x1="2430.04" y1="1477.17" x2="2477.67" y2="1544.84" gradientUnits="userSpaceOnUse">
<stop stop-opacity="0"/>
<stop offset="0.53" stop-color="#FFF156"/>
<stop offset="1" stop-opacity="0"/>
</linearGradient>
<linearGradient id="paint89_linear_2103_2120" x1="2380.39" y1="1377.4" x2="2392.56" y2="1373.14" gradientUnits="userSpaceOnUse">
<stop stop-opacity="0"/>
<stop offset="0.82" stop-color="#208007"/>
</linearGradient>
<linearGradient id="paint90_linear_2103_2120" x1="2289.16" y1="237.841" x2="2317.92" y2="400.771" gradientUnits="userSpaceOnUse">
<stop stop-opacity="0"/>
<stop offset="0.53" stop-color="#FFF156"/>
<stop offset="1" stop-opacity="0"/>
</linearGradient>
<linearGradient id="paint91_linear_2103_2120" x1="1960.51" y1="72.1954" x2="1991.15" y2="29.4005" gradientUnits="userSpaceOnUse">
<stop stop-opacity="0"/>
<stop offset="0.82" stop-color="#208007"/>
</linearGradient>
<linearGradient id="paint92_linear_2103_2120" x1="2444.56" y1="1571.41" x2="2463.69" y2="1599.56" gradientUnits="userSpaceOnUse">
<stop stop-opacity="0"/>
<stop offset="0.53" stop-color="#FFF156"/>
<stop offset="1" stop-opacity="0"/>
</linearGradient>
<linearGradient id="paint93_linear_2103_2120" x1="2423.65" y1="1530.84" x2="2428.74" y2="1528.99" gradientUnits="userSpaceOnUse">
<stop stop-opacity="0"/>
<stop offset="0.82" stop-color="#208007"/>
</linearGradient>
<linearGradient id="paint94_linear_2103_2120" x1="2313.95" y1="202.23" x2="2338.4" y2="340.769" gradientUnits="userSpaceOnUse">
<stop stop-opacity="0"/>
<stop offset="0.53" stop-color="#FFF156"/>
<stop offset="1" stop-opacity="0"/>
</linearGradient>
<linearGradient id="paint95_linear_2103_2120" x1="2034.4" y1="61.3862" x2="2060.45" y2="24.9892" gradientUnits="userSpaceOnUse">
<stop stop-opacity="0"/>
<stop offset="0.82" stop-color="#208007"/>
</linearGradient>
<linearGradient id="paint96_linear_2103_2120" x1="2338.75" y1="166.667" x2="2358.89" y2="280.845" gradientUnits="userSpaceOnUse">
<stop stop-opacity="0"/>
<stop offset="0.53" stop-color="#FFF156"/>
<stop offset="1" stop-opacity="0"/>
</linearGradient>
<linearGradient id="paint97_linear_2103_2120" x1="2108.29" y1="50.5914" x2="2129.76" y2="20.5898" gradientUnits="userSpaceOnUse">
<stop stop-opacity="0"/>
<stop offset="0.82" stop-color="#208007"/>
</linearGradient>
<linearGradient id="paint98_linear_2103_2120" x1="2363.53" y1="131.14" x2="2379.38" y2="220.981" gradientUnits="userSpaceOnUse">
<stop stop-opacity="0"/>
<stop offset="0.53" stop-color="#FFF156"/>
<stop offset="1" stop-opacity="0"/>
</linearGradient>
<linearGradient id="paint99_linear_2103_2120" x1="2182.16" y1="39.807" x2="2199.05" y2="16.1969" gradientUnits="userSpaceOnUse">
<stop stop-opacity="0"/>
<stop offset="0.82" stop-color="#208007"/>
</linearGradient>
<linearGradient id="paint100_linear_2103_2120" x1="2388.32" y1="95.6288" x2="2399.88" y2="161.143" gradientUnits="userSpaceOnUse">
<stop stop-opacity="0"/>
<stop offset="0.53" stop-color="#FFF156"/>
<stop offset="1" stop-opacity="0"/>
</linearGradient>
<linearGradient id="paint101_linear_2103_2120" x1="2256.05" y1="29.0271" x2="2268.37" y2="11.8091" gradientUnits="userSpaceOnUse">
<stop stop-opacity="0"/>
<stop offset="0.82" stop-color="#208007"/>
</linearGradient>
<linearGradient id="paint102_linear_2103_2120" x1="2413.11" y1="60.1301" x2="2420.38" y2="101.324" gradientUnits="userSpaceOnUse">
<stop stop-opacity="0"/>
<stop offset="0.53" stop-color="#FFF156"/>
<stop offset="1" stop-opacity="0"/>
</linearGradient>
<linearGradient id="paint103_linear_2103_2120" x1="2329.93" y1="18.2525" x2="2337.68" y2="7.42507" gradientUnits="userSpaceOnUse">
<stop stop-opacity="0"/>
<stop offset="0.82" stop-color="#208007"/>
</linearGradient>
<linearGradient id="paint104_linear_2103_2120" x1="2437.9" y1="24.6461" x2="2440.87" y2="41.5306" gradientUnits="userSpaceOnUse">
<stop stop-opacity="0"/>
<stop offset="0.53" stop-color="#FFF156"/>
<stop offset="1" stop-opacity="0"/>
</linearGradient>
<linearGradient id="paint105_linear_2103_2120" x1="2403.8" y1="7.48145" x2="2406.97" y2="3.04312" gradientUnits="userSpaceOnUse">
<stop stop-opacity="0"/>
<stop offset="0.82" stop-color="#208007"/>
</linearGradient>
</defs>
</svg>
