<svg width="318" height="71" viewBox="0 0 318 71" fill="none" xmlns="http://www.w3.org/2000/svg">
<mask id="mask0_2111_3280" style="mask-type:luminance" maskUnits="userSpaceOnUse" x="127" y="2" width="191" height="69">
<path d="M296.746 71H127V23.5614C127 11.8224 136.515 2.30707 148.254 2.30707H296.746C308.485 2.30707 318 11.8224 318 23.5614V49.7443C318 61.4833 308.485 71 296.746 71ZM146.266 41.1153C143.653 41.1153 141.534 43.2327 141.534 45.8471C141.534 48.46 143.653 50.5789 146.266 50.5789H298.771C301.384 50.5789 303.503 48.46 303.503 45.8471C303.503 43.2327 301.384 41.1153 298.771 41.1153H146.266ZM146.266 22.7282C143.653 22.7282 141.534 24.8456 141.534 27.46C141.534 30.073 143.653 32.1918 146.266 32.1918H298.771C301.384 32.1918 303.503 30.073 303.503 27.46C303.503 24.8456 301.384 22.7282 298.771 22.7282H146.266Z" fill="white"/>
</mask>
<g mask="url(#mask0_2111_3280)">
<path d="M296.746 71H127V23.5614C127 11.8224 136.515 2.30707 148.254 2.30707H296.746C308.485 2.30707 318 11.8224 318 23.5614V49.7443C318 61.4833 308.485 71 296.746 71ZM146.266 41.1153C143.653 41.1153 141.534 43.2327 141.534 45.8471C141.534 48.46 143.653 50.5789 146.266 50.5789H298.771C301.384 50.5789 303.503 48.46 303.503 45.8471C303.503 43.2327 301.384 41.1153 298.771 41.1153H146.266ZM146.266 22.7282C143.653 22.7282 141.534 24.8456 141.534 27.46C141.534 30.073 143.653 32.1918 146.266 32.1918H298.771C301.384 32.1918 303.503 30.073 303.503 27.46C303.503 24.8456 301.384 22.7282 298.771 22.7282H146.266Z" fill="url(#paint0_linear_2111_3280)"/>
</g>
<rect width="87" height="71" rx="10" fill="#42BFB1"/>
<circle cx="44" cy="36" r="20" fill="white"/>
<defs>
<linearGradient id="paint0_linear_2111_3280" x1="281.199" y1="-22.0443" x2="157.577" y2="101.577" gradientUnits="userSpaceOnUse">
<stop stop-color="#F68D7A"/>
<stop offset="0.00090939" stop-color="#201D5A"/>
<stop offset="1" stop-color="#4E5150"/>
</linearGradient>
</defs>
</svg>
